<svg width="17" height="17" viewBox="0 0 17 17" fill="none" xmlns="http://www.w3.org/2000/svg">
<path d="M14.6256 1.89429L9.31641 5.83748L10.2982 3.51105L14.6256 1.89429Z" fill="#E2761B" stroke="#E2761B" stroke-width="0.0921023" stroke-linecap="round" stroke-linejoin="round"/>
<path d="M2.3689 1.89404L7.63538 5.87458L6.7016 3.5108L2.3689 1.89404Z" fill="#E4761B" stroke="#E4761B" stroke-width="0.0921023" stroke-linecap="round" stroke-linejoin="round"/>
<path d="M12.715 11.0342L11.3008 13.2008L14.3266 14.0333L15.1965 11.0822L12.715 11.0342Z" fill="#E4761B" stroke="#E4761B" stroke-width="0.0921023" stroke-linecap="round" stroke-linejoin="round"/>
<path d="M1.80859 11.0825L2.67311 14.0336L5.69893 13.2011L4.28475 11.0344L1.80859 11.0825Z" fill="#E4761B" stroke="#E4761B" stroke-width="0.0921023" stroke-linecap="round" stroke-linejoin="round"/>
<path d="M5.52872 7.37396L4.68555 8.64939L7.69002 8.7828L7.58329 5.5542L5.52872 7.37396Z" fill="#E4761B" stroke="#E4761B" stroke-width="0.0921023" stroke-linecap="round" stroke-linejoin="round"/>
<path d="M11.467 7.3742L9.38578 5.51709L9.31641 8.78305L12.3155 8.64964L11.467 7.3742Z" fill="#E4761B" stroke="#E4761B" stroke-width="0.0921023" stroke-linecap="round" stroke-linejoin="round"/>
<path d="M5.69922 13.2008L7.50297 12.3202L5.9447 11.1035L5.69922 13.2008Z" fill="#E4761B" stroke="#E4761B" stroke-width="0.0921023" stroke-linecap="round" stroke-linejoin="round"/>
<path d="M9.49219 12.3205L11.3013 13.201L11.0505 11.1038L9.49219 12.3205Z" fill="#E4761B" stroke="#E4761B" stroke-width="0.0921023" stroke-linecap="round" stroke-linejoin="round"/>
<path d="M11.3013 13.2008L9.49219 12.3203L9.63627 13.4997L9.62026 13.996L11.3013 13.2008Z" fill="#D7C1B3" stroke="#D7C1B3" stroke-width="0.0921023" stroke-linecap="round" stroke-linejoin="round"/>
<path d="M5.69922 13.2008L7.38023 13.996L7.36955 13.4997L7.50297 12.3203L5.69922 13.2008Z" fill="#D7C1B3" stroke="#D7C1B3" stroke-width="0.0921023" stroke-linecap="round" stroke-linejoin="round"/>
<path d="M7.40725 10.325L5.90234 9.88211L6.96431 9.39648L7.40725 10.325Z" fill="#233447" stroke="#233447" stroke-width="0.0921023" stroke-linecap="round" stroke-linejoin="round"/>
<path d="M9.58789 10.325L10.0308 9.39648L11.0981 9.88211L9.58789 10.325Z" fill="#233447" stroke="#233447" stroke-width="0.0921023" stroke-linecap="round" stroke-linejoin="round"/>
<path d="M5.69934 13.2011L5.95549 11.0344L4.28516 11.0825L5.69934 13.2011Z" fill="#CD6116" stroke="#CD6116" stroke-width="0.0921023" stroke-linecap="round" stroke-linejoin="round"/>
<path d="M11.0449 11.0347L11.3011 13.2013L12.7153 11.0827L11.0449 11.0347Z" fill="#CD6116" stroke="#CD6116" stroke-width="0.0921023" stroke-linecap="round" stroke-linejoin="round"/>
<path d="M12.3155 8.64941L9.31641 8.78283L9.59391 10.3251L10.0368 9.39653L11.1041 9.88215L12.3155 8.64941Z" fill="#CD6116" stroke="#CD6116" stroke-width="0.0921023" stroke-linecap="round" stroke-linejoin="round"/>
<path d="M5.90203 9.88215L6.96934 9.39653L7.40694 10.3251L7.68977 8.78283L4.6853 8.64941L5.90203 9.88215Z" fill="#CD6116" stroke="#CD6116" stroke-width="0.0921023" stroke-linecap="round" stroke-linejoin="round"/>
<path d="M4.68555 8.64941L5.94497 11.1042L5.90228 9.88215L4.68555 8.64941Z" fill="#E4751F" stroke="#E4751F" stroke-width="0.0921023" stroke-linecap="round" stroke-linejoin="round"/>
<path d="M11.1041 9.88215L11.0508 11.1042L12.3155 8.64941L11.1041 9.88215Z" fill="#E4751F" stroke="#E4751F" stroke-width="0.0921023" stroke-linecap="round" stroke-linejoin="round"/>
<path d="M7.68909 8.78271L7.40625 10.325L7.75846 12.1447L7.83851 9.74863L7.68909 8.78271Z" fill="#E4751F" stroke="#E4751F" stroke-width="0.0921023" stroke-linecap="round" stroke-linejoin="round"/>
<path d="M9.31792 8.78271L9.17383 9.74329L9.23787 12.1447L9.59541 10.325L9.31792 8.78271Z" fill="#E4751F" stroke="#E4751F" stroke-width="0.0921023" stroke-linecap="round" stroke-linejoin="round"/>
<path d="M9.59388 10.325L9.23633 12.1448L9.49248 12.3209L11.0508 11.1041L11.1041 9.88208L9.59388 10.325Z" fill="#F6851B" stroke="#F6851B" stroke-width="0.0921023" stroke-linecap="round" stroke-linejoin="round"/>
<path d="M5.90234 9.88184L5.94504 11.1039L7.5033 12.3206L7.75946 12.1445L7.40725 10.3248L5.90234 9.88184Z" fill="#F6851B" stroke="#F6851B" stroke-width="0.0921023" stroke-linecap="round" stroke-linejoin="round"/>
<path d="M9.62106 13.9957L9.63707 13.4995L9.50368 13.3821H7.49206L7.36934 13.4995L7.38001 13.9957L5.69922 13.2007L6.28616 13.6809L7.47606 14.508H9.51968L10.7149 13.6809L11.3019 13.2007L9.62106 13.9957Z" fill="#C0AD9E" stroke="#C0AD9E" stroke-width="0.0921023" stroke-linecap="round" stroke-linejoin="round"/>
<path d="M9.49308 12.3206L9.23693 12.1445H7.75871L7.50255 12.3206L7.36914 13.5L7.49188 13.3826H9.50375L9.63717 13.5L9.49308 12.3206Z" fill="#161616" stroke="#161616" stroke-width="0.0921023" stroke-linecap="round" stroke-linejoin="round"/>
<path d="M14.8494 6.09335L15.3029 3.91633L14.6253 1.89404L9.49219 5.70384L11.4664 7.37395L14.2571 8.19034L14.8761 7.47L14.6093 7.27791L15.0361 6.88839L14.7053 6.63227L15.1322 6.30679L14.8494 6.09335Z" fill="#763D16" stroke="#763D16" stroke-width="0.0921023" stroke-linecap="round" stroke-linejoin="round"/>
<path d="M1.69727 3.91633L2.15081 6.09335L1.86268 6.30679L2.28954 6.63227L1.96406 6.88839L2.39093 7.27791L2.12413 7.47L2.73776 8.19034L5.5284 7.37395L7.50266 5.70384L2.36958 1.89404L1.69727 3.91633Z" fill="#763D16" stroke="#763D16" stroke-width="0.0921023" stroke-linecap="round" stroke-linejoin="round"/>
<path d="M14.258 8.19051L11.467 7.37402L12.3155 8.64946L11.0508 11.1043L12.7158 11.0829H15.1973L14.258 8.19051Z" fill="#F6851B" stroke="#F6851B" stroke-width="0.0921023" stroke-linecap="round" stroke-linejoin="round"/>
<path d="M5.52816 7.37402L2.73715 8.19051L1.80859 11.0829H4.28475L5.94441 11.1043L4.68499 8.64946L5.52816 7.37402Z" fill="#F6851B" stroke="#F6851B" stroke-width="0.0921023" stroke-linecap="round" stroke-linejoin="round"/>
<path d="M9.31574 8.78256L9.49182 5.70377L10.3029 3.51074H6.70117L7.50155 5.70377L7.6883 8.78256L7.75233 9.75368L7.75767 12.1441H9.2357L9.24637 9.75368L9.31574 8.78256Z" fill="#F6851B" stroke="#F6851B" stroke-width="0.0921023" stroke-linecap="round" stroke-linejoin="round"/>
</svg>
