<svg width="21" height="22" viewBox="0 0 21 22" fill="none" xmlns="http://www.w3.org/2000/svg">
<g filter="url(#filter0_ii_5_109)">
<path d="M1 11H6.27778M1 11C1 16.5228 5.25329 21 10.5 21M1 11C1 5.47715 5.25329 1 10.5 1M6.27778 11H14.7222M6.27778 11C6.27778 16.5228 8.16813 21 10.5 21M6.27778 11C6.27778 5.47715 8.16813 1 10.5 1M14.7222 11H20M14.7222 11C14.7222 5.47715 12.8319 1 10.5 1M14.7222 11C14.7222 16.5228 12.8319 21 10.5 21M20 11C20 5.47715 15.7467 1 10.5 1M20 11C20 16.5228 15.7467 21 10.5 21" stroke="#A8A9AB" stroke-width="2" stroke-linecap="round" stroke-linejoin="round"/>
</g>
<defs>
<filter id="filter0_ii_5_109" x="0" y="0" width="21" height="23" filterUnits="userSpaceOnUse" color-interpolation-filters="sRGB">
<feFlood flood-opacity="0" result="BackgroundImageFix"/>
<feBlend mode="normal" in="SourceGraphic" in2="BackgroundImageFix" result="shape"/>
<feColorMatrix in="SourceAlpha" type="matrix" values="0 0 0 0 0 0 0 0 0 0 0 0 0 0 0 0 0 0 127 0" result="hardAlpha"/>
<feOffset dy="1"/>
<feGaussianBlur stdDeviation="1.25"/>
<feComposite in2="hardAlpha" operator="arithmetic" k2="-1" k3="1"/>
<feColorMatrix type="matrix" values="0 0 0 0 1 0 0 0 0 1 0 0 0 0 1 0 0 0 0.53 0"/>
<feBlend mode="color-dodge" in2="shape" result="effect1_innerShadow_5_109"/>
<feColorMatrix in="SourceAlpha" type="matrix" values="0 0 0 0 0 0 0 0 0 0 0 0 0 0 0 0 0 0 127 0" result="hardAlpha"/>
<feOffset dy="1"/>
<feGaussianBlur stdDeviation="1.25"/>
<feComposite in2="hardAlpha" operator="arithmetic" k2="-1" k3="1"/>
<feColorMatrix type="matrix" values="0 0 0 0 1 0 0 0 0 1 0 0 0 0 1 0 0 0 0.53 0"/>
<feBlend mode="color-dodge" in2="effect1_innerShadow_5_109" result="effect2_innerShadow_5_109"/>
</filter>
</defs>
</svg>
