<svg width="15" height="16" viewBox="0 0 15 16" fill="none" xmlns="http://www.w3.org/2000/svg">
<rect width="15" height="16" rx="4" fill="#1A2F46"/>
<path d="M4.25193 6.1723C6.04579 4.60923 8.95422 4.60923 10.7481 6.1723L10.964 6.36041C11.0537 6.43857 11.0537 6.56528 10.964 6.64343L10.2254 7.28694C10.1806 7.32602 10.1079 7.32602 10.063 7.28694L9.76594 7.02807C8.5145 5.93764 6.48551 5.93764 5.23407 7.02807L4.9159 7.3053C4.87105 7.34437 4.79834 7.34437 4.7535 7.3053L4.01496 6.66179C3.92527 6.58363 3.92527 6.45692 4.01496 6.37877L4.25193 6.1723ZM12.2754 7.50314L12.9327 8.07587C13.0224 8.15402 13.0224 8.28073 12.9327 8.35889L9.96894 10.9414C9.87925 11.0195 9.73383 11.0195 9.64414 10.9414C9.64414 10.9414 9.64414 10.9414 9.64414 10.9414L7.54062 9.10851C7.5182 9.08897 7.48184 9.08897 7.45942 9.10851C7.45942 9.10851 7.45942 9.10851 7.45942 9.10851L5.35595 10.9414C5.26626 11.0195 5.12083 11.0195 5.03114 10.9414C5.03114 10.9414 5.03114 10.9414 5.03114 10.9414L2.06727 8.35885C1.97758 8.2807 1.97758 8.15399 2.06727 8.07584L2.72457 7.50311C2.81426 7.42496 2.95968 7.42496 3.04937 7.50311L5.15292 9.33601C5.17534 9.35555 5.2117 9.35555 5.23412 9.33601C5.23412 9.33601 5.23412 9.33601 5.23412 9.33601L7.33756 7.50311C7.42725 7.42495 7.57267 7.42495 7.66237 7.5031C7.66237 7.5031 7.66237 7.5031 7.66237 7.5031L9.76592 9.33601C9.78834 9.35555 9.8247 9.35555 9.84712 9.33601L11.9506 7.50314C12.0403 7.42499 12.1857 7.42499 12.2754 7.50314Z" fill="#3B99FC"/>
</svg>
