<svg width="27" height="16" viewBox="0 0 27 16" fill="none" xmlns="http://www.w3.org/2000/svg">
<path d="M5.52746 3.12612C9.93058 -1.04204 17.0694 -1.04204 21.4726 3.12612L22.0025 3.62777C22.2226 3.83617 22.2226 4.17407 22.0025 4.38248L20.1897 6.09851C20.0797 6.20271 19.9012 6.20271 19.7911 6.09851L19.0619 5.40818C15.9901 2.50037 11.0099 2.50037 7.93816 5.40818L7.15721 6.14746C7.04713 6.25167 6.86866 6.25167 6.75858 6.14746L4.94582 4.43143C4.72567 4.22303 4.72567 3.88513 4.94582 3.67672L5.52746 3.12612ZM25.2215 6.67505L26.8349 8.20232C27.055 8.41073 27.055 8.74862 26.8349 8.95703L19.5601 15.8437C19.34 16.0521 18.983 16.0521 18.7629 15.8437L13.5997 10.956C13.5447 10.9039 13.4554 10.9039 13.4004 10.956L8.23733 15.8437C8.01717 16.0521 7.66023 16.0521 7.44007 15.8437L0.165117 8.95694C-0.055039 8.74853 -0.055039 8.41064 0.165117 8.20223L1.77848 6.67496C1.99864 6.46655 2.35558 6.46655 2.57573 6.67496L7.73898 11.5627C7.79402 11.6148 7.88326 11.6148 7.9383 11.5627L13.1013 6.67496C13.3214 6.46655 13.6784 6.46654 13.8985 6.67494L19.0618 11.5627C19.1168 11.6148 19.2061 11.6148 19.2611 11.5627L24.4243 6.67505C24.6444 6.46664 25.0014 6.46664 25.2215 6.67505Z" fill="#3B99FC"/>
</svg>
