<svg width="8" height="570" viewBox="0 0 8 570" fill="none" xmlns="http://www.w3.org/2000/svg">
<path d="M1.55705 0V19.7525H0V0H1.55705ZM8 0V19.7525H6.44295V0H8Z" fill="#242424"/>
<path d="M1.55705 21.1634V40.9158H0V21.1634H1.55705ZM8 21.1634V40.9158H6.44295V21.1634H8Z" fill="#242424"/>
<path d="M1.55705 42.3267V62.0792H0V42.3267H1.55705ZM8 42.3267V62.0792H6.44295V42.3267H8Z" fill="#242424"/>
<path d="M1.55705 63.4901V83.2426H0V63.4901H1.55705ZM8 63.4901V83.2426H6.44295V63.4901H8Z" fill="#242424"/>
<path d="M1.55705 84.6535V104.406H0V84.6535H1.55705ZM8 84.6535V104.406H6.44295V84.6535H8Z" fill="#242424"/>
<path d="M1.55705 105.817V125.569H0V105.817H1.55705ZM8 105.817V125.569H6.44295V105.817H8Z" fill="#242424"/>
<path d="M1.55705 126.98V146.733H0V126.98H1.55705ZM8 126.98V146.733H6.44295V126.98H8Z" fill="#242424"/>
<path d="M1.55705 148.144V167.896H0V148.144H1.55705ZM8 148.144V167.896H6.44295V148.144H8Z" fill="#242424"/>
<path d="M1.55705 169.307V189.059H0V169.307H1.55705ZM8 169.307V189.059H6.44295V169.307H8Z" fill="#242424"/>
<path d="M1.55705 190.47V210.223H0V190.47H1.55705ZM8 190.47V210.223H6.44295V190.47H8Z" fill="#242424"/>
<path d="M1.55705 211.634V231.386H0V211.634H1.55705ZM8 211.634V231.386H6.44295V211.634H8Z" fill="#242424"/>
<path d="M1.55705 232.797V252.55H0V232.797H1.55705ZM8 232.797V252.55H6.44295V232.797H8Z" fill="#242424"/>
<path d="M1.55705 253.96V273.713H0V253.96H1.55705ZM8 253.96V273.713H6.44295V253.96H8Z" fill="#242424"/>
<path d="M1.55705 275.124V294.876H0V275.124H1.55705ZM8 275.124V294.876H6.44295V275.124H8Z" fill="#242424"/>
<path d="M1.55705 296.287V316.04H0V296.287H1.55705ZM8 296.287V316.04H6.44295V296.287H8Z" fill="#242424"/>
<path d="M1.55705 317.451V337.203H0V317.451H1.55705ZM8 317.451V337.203H6.44295V317.451H8Z" fill="#242424"/>
<path d="M1.55705 338.614V358.366H0V338.614H1.55705ZM8 338.614V358.366H6.44295V338.614H8Z" fill="#242424"/>
<path d="M1.55705 359.777V379.53H0V359.777H1.55705ZM8 359.777V379.53H6.44295V359.777H8Z" fill="#242424"/>
<path d="M1.55705 380.941V400.693H0V380.941H1.55705ZM8 380.941V400.693H6.44295V380.941H8Z" fill="#242424"/>
<path d="M1.55705 402.104V421.856H0V402.104H1.55705ZM8 402.104V421.856H6.44295V402.104H8Z" fill="#242424"/>
<path d="M1.55705 423.267V443.02H0V423.267H1.55705ZM8 423.267V443.02H6.44295V423.267H8Z" fill="#242424"/>
<path d="M1.55705 444.431V464.183H0V444.431H1.55705ZM8 444.431V464.183H6.44295V444.431H8Z" fill="#242424"/>
<path d="M1.55705 465.594V485.347H0V465.594H1.55705ZM8 465.594V485.347H6.44295V465.594H8Z" fill="#242424"/>
<path d="M1.55705 486.757V506.51H0V486.757H1.55705ZM8 486.757V506.51H6.44295V486.757H8Z" fill="#242424"/>
<path d="M1.55705 507.921V527.673H0V507.921H1.55705ZM8 507.921V527.673H6.44295V507.921H8Z" fill="#242424"/>
<path d="M1.55705 529.084V548.837H0V529.084H1.55705ZM8 529.084V548.837H6.44295V529.084H8Z" fill="#242424"/>
<path d="M1.55705 550.248V570H0V550.248H1.55705ZM8 550.248V570H6.44295V550.248H8Z" fill="#242424"/>
</svg>
