<svg width="234" height="48" viewBox="0 0 234 48" fill="none" xmlns="http://www.w3.org/2000/svg">
<path d="M79.131 0.732261V0H83.5585V0.732261H79.131Z" fill="white"/>
<path d="M99.6607 0.732261V0H104.088V0.732261H99.6607Z" fill="white"/>
<path d="M76.5975 2.56259V13.3444H75.8271V2.56259H76.5975Z" fill="white"/>
<path d="M84.2501 3.69468L84.9275 3.36673L88.7042 11.2778L88.0224 11.5878L84.2501 3.69468Z" fill="white"/>
<path d="M97.1272 2.56259V13.3444H96.3568V2.56259H97.1272Z" fill="white"/>
<path d="M107.392 2.56259V13.3444H106.622V2.56259H107.392Z" fill="white"/>
<path d="M76.5975 14.1145V24.8962H75.8271V14.1145H76.5975Z" fill="white"/>
<path d="M89.3826 15.2466L90.06 14.9186L93.8366 22.8297L93.1548 23.1397L89.3826 15.2466Z" fill="white"/>
<path d="M97.1272 14.1145V24.8962H96.3568V14.1145H97.1272Z" fill="white"/>
<path d="M107.392 14.1145V24.8962H106.622V14.1145H107.392Z" fill="white"/>
<path d="M76.5975 25.6664V36.4481H75.8271V25.6664H76.5975Z" fill="white"/>
<path d="M86.8624 25.6664V36.4481H86.092V25.6664H86.8624Z" fill="white"/>
<path d="M89.3826 26.7984L90.06 26.4705L93.8366 34.3816L93.1548 34.6916L89.3826 26.7984Z" fill="white"/>
<path d="M107.392 25.6664V36.4481H106.622V25.6664H107.392Z" fill="white"/>
<path d="M76.5975 37.2182V48H75.8271V37.2182H76.5975Z" fill="white"/>
<path d="M79.131 46.9398V46.2075H83.5585V46.9398H79.131Z" fill="white"/>
<path d="M86.8624 37.2182V48H86.092V37.2182H86.8624Z" fill="white"/>
<path d="M94.515 38.3503L95.1924 38.0224L98.969 45.9335L98.2872 46.2435L94.515 38.3503Z" fill="white"/>
<path d="M99.6607 46.9398V46.2075H104.088V46.9398H99.6607Z" fill="white"/>
<path d="M107.392 37.2182V48H106.622V37.2182H107.392Z" fill="white"/>
<path d="M112.653 0.732261V0H117.081V0.732261H112.653Z" fill="white"/>
<path d="M133.183 0.732261V0H137.61V0.732261H133.183Z" fill="white"/>
<path d="M110.12 2.56259V13.3444H109.349V2.56259H110.12Z" fill="white"/>
<path d="M117.772 3.69468L118.45 3.36673L122.227 11.2778L121.545 11.5878L117.772 3.69468Z" fill="white"/>
<path d="M130.649 2.56259V13.3444H129.879V2.56259H130.649Z" fill="white"/>
<path d="M140.914 2.56259V13.3444H140.144V2.56259H140.914Z" fill="white"/>
<path d="M110.12 14.1145V24.8962H109.349V14.1145H110.12Z" fill="white"/>
<path d="M122.905 15.2466L123.582 14.9186L127.359 22.8297L126.677 23.1397L122.905 15.2466Z" fill="white"/>
<path d="M130.649 14.1145V24.8962H129.879V14.1145H130.649Z" fill="white"/>
<path d="M140.914 14.1145V24.8962H140.144V14.1145H140.914Z" fill="white"/>
<path d="M110.12 25.6664V36.4481H109.349V25.6664H110.12Z" fill="white"/>
<path d="M120.385 25.6664V36.4481H119.614V25.6664H120.385Z" fill="white"/>
<path d="M122.905 26.7984L123.582 26.4705L127.359 34.3816L126.677 34.6916L122.905 26.7984Z" fill="white"/>
<path d="M140.914 25.6664V36.4481H140.144V25.6664H140.914Z" fill="white"/>
<path d="M110.12 37.2182V48H109.349V37.2182H110.12Z" fill="white"/>
<path d="M112.653 46.9398V46.2075H117.081V46.9398H112.653Z" fill="white"/>
<path d="M120.385 37.2182V48H119.614V37.2182H120.385Z" fill="white"/>
<path d="M128.037 38.3503L128.715 38.0224L132.491 45.9335L131.809 46.2435L128.037 38.3503Z" fill="white"/>
<path d="M133.183 46.9398V46.2075H137.61V46.9398H133.183Z" fill="white"/>
<path d="M140.914 37.2182V48H140.144V37.2182H140.914Z" fill="white"/>
<path d="M34.2238 0.732261V0H39.1825V0.732261H34.2238Z" fill="white"/>
<path d="M38.8249 0.732261V0H44.3149V0.732261H38.8249Z" fill="white"/>
<path d="M43.9573 0.732261V0H49.4474V0.732261H43.9573Z" fill="white"/>
<path d="M49.0897 0.732261V0H54.5798V0.732261H49.0897Z" fill="white"/>
<path d="M54.2221 0.732261V0H59.7122V0.732261H54.2221Z" fill="white"/>
<path d="M59.3545 0.732261V0H64.8446V0.732261H59.3545Z" fill="white"/>
<path d="M64.4869 0.732261V0H69.4457V0.732261H64.4869Z" fill="white"/>
<path d="M29.7599 11.5878L29.0781 11.2778L32.8591 3.36673L33.5321 3.69468L29.7599 11.5878Z" fill="white"/>
<path d="M44.4886 12.2841V11.5519H49.4474V12.2841H44.4886Z" fill="white"/>
<path d="M49.0897 12.2841V11.5519H54.5798V12.2841H49.0897Z" fill="white"/>
<path d="M54.2221 12.2841V11.5519H59.1809V12.2841H54.2221Z" fill="white"/>
<path d="M70.1374 3.69468L70.8148 3.36673L74.5914 11.2778L73.9096 11.5878L70.1374 3.69468Z" fill="white"/>
<path d="M31.6903 14.1145V24.8962H30.9199V14.1145H31.6903Z" fill="white"/>
<path d="M41.9551 14.1145V24.8962H41.1847V14.1145H41.9551Z" fill="white"/>
<path d="M62.4847 14.1145V24.8962H61.7144V14.1145H62.4847Z" fill="white"/>
<path d="M72.7496 14.1145V24.8962H71.9792V14.1145H72.7496Z" fill="white"/>
<path d="M31.6903 25.6664V36.4481H30.9199V25.6664H31.6903Z" fill="white"/>
<path d="M41.9551 25.6664V36.4481H41.1847V25.6664H41.9551Z" fill="white"/>
<path d="M44.4886 35.3879V34.6557H49.4474V35.3879H44.4886Z" fill="white"/>
<path d="M49.0897 35.3879V34.6557H54.5798V35.3879H49.0897Z" fill="white"/>
<path d="M54.2221 35.3879V34.6557H59.1809V35.3879H54.2221Z" fill="white"/>
<path d="M62.4847 25.6664V36.4481H61.7144V25.6664H62.4847Z" fill="white"/>
<path d="M72.7496 25.6664V36.4481H71.9792V25.6664H72.7496Z" fill="white"/>
<path d="M29.0781 38.3503L29.7555 38.0224L33.5321 45.9335L32.8503 46.2435L29.0781 38.3503Z" fill="white"/>
<path d="M34.2238 46.9398V46.2075H39.1825V46.9398H34.2238Z" fill="white"/>
<path d="M38.8249 46.9398V46.2075H44.3149V46.9398H38.8249Z" fill="white"/>
<path d="M43.9573 46.9398V46.2075H49.4474V46.9398H43.9573Z" fill="white"/>
<path d="M49.0897 46.9398V46.2075H54.5798V46.9398H49.0897Z" fill="white"/>
<path d="M54.2221 46.9398V46.2075H59.7122V46.9398H54.2221Z" fill="white"/>
<path d="M59.3545 46.9398V46.2075H64.8446V46.9398H59.3545Z" fill="white"/>
<path d="M64.4869 46.9398V46.2075H69.4457V46.9398H64.4869Z" fill="white"/>
<path d="M70.8192 46.2435L70.1374 45.9335L73.9184 38.0224L74.5914 38.3503L70.8192 46.2435Z" fill="white"/>
<path d="M8.43628 0.732261V0H13.3951V0.732261H8.43628Z" fill="white"/>
<path d="M13.0374 0.732261V0H18.5275V0.732261H13.0374Z" fill="white"/>
<path d="M18.1698 0.732261V0H23.6599V0.732261H18.1698Z" fill="white"/>
<path d="M23.3022 0.732261V0H28.261V0.732261H23.3022Z" fill="white"/>
<path d="M3.97241 11.5878L3.29058 11.2778L7.07165 3.36673L7.74462 3.69468L3.97241 11.5878Z" fill="white"/>
<path d="M13.5687 12.2841V11.5519H18.5275V12.2841H13.5687Z" fill="white"/>
<path d="M18.1698 12.2841V11.5519H23.6599V12.2841H18.1698Z" fill="white"/>
<path d="M23.3022 12.2841V11.5519H28.261V12.2841H23.3022Z" fill="white"/>
<path d="M29.6345 11.5878L28.9526 11.2778L32.7337 3.36673L33.4067 3.69468L29.6345 11.5878Z" fill="white"/>
<path d="M0.770381 14.1145V24.8962H0V14.1145H0.770381Z" fill="white"/>
<path d="M11.0352 14.1145V24.8962H10.2648V14.1145H11.0352Z" fill="white"/>
<path d="M0.770381 25.6664V36.4481H0V25.6664H0.770381Z" fill="white"/>
<path d="M11.0352 25.6664V36.4481H10.2648V25.6664H11.0352Z" fill="white"/>
<path d="M13.5687 35.3879V34.6557H18.5275V35.3879H13.5687Z" fill="white"/>
<path d="M18.1698 35.3879V34.6557H23.1286V35.3879H18.1698Z" fill="white"/>
<path d="M3.29058 38.3503L3.96799 38.0224L7.74462 45.9335L7.06279 46.2435L3.29058 38.3503Z" fill="white"/>
<path d="M8.43628 46.9398V46.2075H13.3951V46.9398H8.43628Z" fill="white"/>
<path d="M13.0374 46.9398V46.2075H18.5275V46.9398H13.0374Z" fill="white"/>
<path d="M18.1698 46.9398V46.2075H23.6599V46.9398H18.1698Z" fill="white"/>
<path d="M23.3022 46.9398V46.2075H28.261V46.9398H23.3022Z" fill="white"/>
<path d="M28.9526 38.3503L29.6301 38.0224L33.4067 45.9335L32.7249 46.2435L28.9526 38.3503Z" fill="white"/>
<path d="M147.441 0.732261V0H152.399V0.732261H147.441Z" fill="white"/>
<path d="M152.042 0.732261V0H157.532V0.732261H152.042Z" fill="white"/>
<path d="M157.174 0.732261V0H162.664V0.732261H157.174Z" fill="white"/>
<path d="M162.307 0.732261V0H167.797V0.732261H162.307Z" fill="white"/>
<path d="M167.439 0.732261V0H172.398V0.732261H167.439Z" fill="white"/>
<path d="M178.235 0.732261V0H183.194V0.732261H178.235Z" fill="white"/>
<path d="M182.836 0.732261V0H188.326V0.732261H182.836Z" fill="white"/>
<path d="M187.969 0.732261V0H193.459V0.732261H187.969Z" fill="white"/>
<path d="M193.101 0.732261V0H198.06V0.732261H193.101Z" fill="white"/>
<path d="M203.897 0.732261V0H208.856V0.732261H203.897Z" fill="white"/>
<path d="M208.498 0.732261V0H213.988V0.732261H208.498Z" fill="white"/>
<path d="M213.631 0.732261V0H219.121V0.732261H213.631Z" fill="white"/>
<path d="M218.763 0.732261V0H224.253V0.732261H218.763Z" fill="white"/>
<path d="M223.896 0.732261V0H228.854V0.732261H223.896Z" fill="white"/>
<path d="M144.907 2.56259V13.3444H144.137V2.56259H144.907Z" fill="white"/>
<path d="M152.573 12.2841V11.5519H157.532V12.2841H152.573Z" fill="white"/>
<path d="M157.174 12.2841V11.5519H162.664V12.2841H157.174Z" fill="white"/>
<path d="M162.307 12.2841V11.5519H167.797V12.2841H162.307Z" fill="white"/>
<path d="M167.439 12.2841V11.5519H172.398V12.2841H167.439Z" fill="white"/>
<path d="M173.771 11.5878L173.089 11.2778L176.87 3.36673L177.543 3.69468L173.771 11.5878Z" fill="white"/>
<path d="M183.368 12.2841V11.5519H188.326V12.2841H183.368Z" fill="white"/>
<path d="M187.969 12.2841V11.5519H193.459V12.2841H187.969Z" fill="white"/>
<path d="M193.101 12.2841V11.5519H198.591V12.2841H193.101Z" fill="white"/>
<path d="M198.233 12.2841V11.5519H203.724V12.2841H198.233ZM200.589 4.14392H201.359V11.9068H200.589V4.14392Z" fill="white"/>
<path d="M203.366 12.2841V11.5519H208.325V12.2841H203.366Z" fill="white"/>
<path d="M224.427 12.2841V11.5519H228.854V12.2841H224.427Z" fill="white"/>
<path d="M230.228 11.5878L229.546 11.2778L233.327 3.36673L234 3.69468L230.228 11.5878Z" fill="white"/>
<path d="M144.907 14.1145V24.8962H144.137V14.1145H144.907Z" fill="white"/>
<path d="M157.705 23.836V23.1038H162.133V23.836H157.705Z" fill="white"/>
<path d="M166.319 14.1145V24.8962H165.548V14.1145H166.319ZM169.507 14.1145V24.8962H168.736V14.1145H169.507Z" fill="white"/>
<path d="M180.834 14.1145V24.8962H180.064V14.1145H180.834Z" fill="white"/>
<path d="M211.629 14.1145V24.8962H210.858V14.1145H211.629Z" fill="white"/>
<path d="M221.893 14.1145V24.8962H221.123V14.1145H221.893Z" fill="white"/>
<path d="M144.907 25.6664V36.4481H144.137V25.6664H144.907Z" fill="white"/>
<path d="M155.172 25.6664V36.4481H154.402V25.6664H155.172Z" fill="white"/>
<path d="M157.705 35.3879V34.6557H162.664V35.3879H157.705Z" fill="white"/>
<path d="M162.307 35.3879V34.6557H167.265V35.3879H162.307Z" fill="white"/>
<path d="M170.569 25.6664V36.4481H169.799V25.6664H170.569Z" fill="white"/>
<path d="M180.834 25.6664V36.4481H180.064V25.6664H180.834Z" fill="white"/>
<path d="M183.368 35.3879V34.6557H188.326V35.3879H183.368Z" fill="white"/>
<path d="M187.969 35.3879V34.6557H193.459V35.3879H187.969Z" fill="white"/>
<path d="M193.101 35.3879V34.6557H198.06V35.3879H193.101Z" fill="white"/>
<path d="M211.629 25.6664V36.4481H210.858V25.6664H211.629Z" fill="white"/>
<path d="M221.893 25.6664V36.4481H221.123V25.6664H221.893Z" fill="white"/>
<path d="M144.907 37.2182V48H144.137V37.2182H144.907Z" fill="white"/>
<path d="M147.441 46.9398V46.2075H152.399V46.9398H147.441Z" fill="white"/>
<path d="M152.042 46.9398V46.2075H157.532V46.9398H152.042Z" fill="white"/>
<path d="M157.174 46.9398V46.2075H162.664V46.9398H157.174Z" fill="white"/>
<path d="M162.307 46.9398V46.2075H167.797V46.9398H162.307Z" fill="white"/>
<path d="M167.439 46.9398V46.2075H172.398V46.9398H167.439Z" fill="white"/>
<path d="M173.089 38.3503L173.767 38.0224L177.543 45.9335L176.862 46.2435L173.089 38.3503Z" fill="white"/>
<path d="M178.235 46.9398V46.2075H183.194V46.9398H178.235Z" fill="white"/>
<path d="M182.836 46.9398V46.2075H188.326V46.9398H182.836Z" fill="white"/>
<path d="M187.969 46.9398V46.2075H193.459V46.9398H187.969Z" fill="white"/>
<path d="M193.101 46.9398V46.2075H198.06V46.9398H193.101Z" fill="white"/>
<path d="M201.364 37.2182V48H200.593V37.2182H201.364Z" fill="white"/>
<path d="M211.629 37.2182V48H210.858V37.2182H211.629Z" fill="white"/>
<path d="M214.162 46.9398V46.2075H218.589V46.9398H214.162Z" fill="white"/>
<path d="M221.893 37.2182V48H221.123V37.2182H221.893Z" fill="white"/>
</svg>
