<svg width="24" height="11" viewBox="0 0 34 21" fill="none" xmlns="http://www.w3.org/2000/svg">
<path d="M6.96942 4.16909C12.5091 -1.19438 21.4908 -1.19438 27.0305 4.16909L27.6972 4.81459C27.9742 5.08277 27.9742 5.51756 27.6972 5.78574L25.4165 7.99387C25.278 8.12796 25.0535 8.12796 24.915 7.99387L23.9975 7.10558C20.1329 3.36389 13.867 3.36389 10.0024 7.10558L9.01986 8.05687C8.88137 8.19096 8.65683 8.19096 8.51834 8.05687L6.23764 5.84873C5.96066 5.58056 5.96066 5.14576 6.23764 4.87759L6.96942 4.16909ZM31.7472 8.73575L33.777 10.701C34.054 10.9692 34.054 11.404 33.777 11.6721L24.6244 20.5337C24.3474 20.8019 23.8983 20.8019 23.6214 20.5337C23.6214 20.5337 23.6214 20.5337 23.6214 20.5337L17.1254 14.2444C17.0561 14.1774 16.9439 14.1774 16.8746 14.2444C16.8746 14.2444 16.8746 14.2444 16.8746 14.2444L10.3788 20.5337C10.1018 20.8019 9.65273 20.8019 9.37574 20.5337C9.37574 20.5337 9.37574 20.5337 9.37574 20.5337L0.222876 11.672C-0.0541097 11.4039 -0.0541097 10.9691 0.222876 10.7009L2.2527 8.73564C2.52969 8.46746 2.97877 8.46746 3.25576 8.73564L9.75181 15.025C9.82106 15.0921 9.93333 15.0921 10.0026 15.025C10.0026 15.025 10.0026 15.025 10.0026 15.025L16.4983 8.73564C16.7753 8.46746 17.2244 8.46745 17.5014 8.73561C17.5014 8.73561 17.5014 8.73562 17.5014 8.73561L23.9974 15.025C24.0667 15.0921 24.1789 15.0921 24.2482 15.025L30.7441 8.73575C31.0211 8.46758 31.4702 8.46758 31.7472 8.73575Z" fill="#3B99FC"/>
</svg>
