 <svg class="pulse-svg" width="147" height="150" viewBox="0 0 147 150" fill="none"
              xmlns="http://www.w3.org/2000/svg">
              <path
                d="M68.5242 0.5C71.9974 0.5 75.4748 0.5 78.9479 0.5C81.9499 0.984558 84.9936 1.27861 87.9414 1.98681C118.983 9.4167 137.867 28.8652 145.284 59.525C146.055 62.7139 146.38 66.0064 146.91 69.2534V80.4355C146.484 83.1399 146.105 85.8568 145.63 88.5529C140.506 117.635 118.287 141.021 89.3591 147.706C85.7942 148.531 82.1417 148.977 78.5309 149.599H68.1073C65.8517 149.255 63.5876 148.969 61.3444 148.559C31.1117 143.047 8.05866 120.699 1.79613 90.7892C1.10817 87.5009 0.68705 84.1629 0.14502 80.8455C0.14502 77.1182 0.14502 73.3907 0.14502 69.6634C0.570305 66.9589 0.953895 64.2463 1.42088 61.546C6.46593 32.6175 28.7601 9.08951 57.5002 2.4548C61.1318 1.61821 64.8468 1.14194 68.5242 0.5ZM111.078 12.3075C111.095 12.2784 111.111 12.2453 111.132 12.2164C111.086 12.2371 111.044 12.2536 110.999 12.2743C110.994 12.2123 110.99 12.1542 110.986 12.0921C111.019 12.1626 111.049 12.2371 111.082 12.3075H111.078ZM28.9727 132.991C29.0102 132.999 29.052 133.004 29.0894 133.012C29.0561 133.037 29.0269 133.062 28.9936 133.086C29.0061 133.058 29.0185 133.029 29.031 132.999C28.9143 132.781 28.7934 132.561 28.6766 132.341C26.1749 129.989 24.3362 126.936 21.1341 125.325C21.0966 125.346 21.0549 125.366 21.0173 125.384C21.0715 125.376 21.1258 125.371 21.1799 125.363C21.2592 125.727 21.2134 126.219 21.4343 126.436C23.4565 128.386 25.5078 130.304 27.5967 132.184C27.8177 132.382 28.3098 132.274 28.6766 132.312C28.7726 132.535 28.8684 132.763 28.9685 132.988L28.9727 132.991ZM31.7412 14.7634L31.3201 15.2935C31.2784 15.5503 31.2409 15.8071 31.1991 16.0638C30.8364 16.0638 30.4738 16.0679 30.111 16.0721C29.9942 16.3164 29.8774 16.5608 29.7565 16.801L29.6482 16.8342L29.7148 16.7431C29.84 16.4946 29.965 16.2419 30.0943 15.9934C30.4528 16.0059 30.8156 16.0182 31.1742 16.0348C31.2034 15.7656 31.2326 15.4965 31.2618 15.2273C31.3993 15.0823 31.5328 14.9415 31.6703 14.7965C31.6828 14.8256 31.6954 14.8587 31.7079 14.8876C31.7204 14.8462 31.7287 14.8007 31.7412 14.7593V14.7634ZM122.193 128.66C122.364 128.593 122.539 128.522 122.711 128.457C123.369 128.005 124.137 127.648 124.675 127.082C126.421 125.222 128.127 123.317 129.769 121.362C130.587 120.389 131.232 119.27 131.954 118.219C130.658 118.952 129.361 119.68 128.064 120.414C128.01 120.446 127.968 120.513 127.931 120.571C126.2 123.209 124.47 125.852 122.744 128.49L122.156 128.696L122.235 128.813L122.193 128.66ZM91.3938 3.87948C91.3938 3.85463 91.3938 3.82978 91.3938 3.80494C91.373 3.81736 91.3479 3.83393 91.327 3.84635C91.548 3.87534 91.7648 3.90432 91.9858 3.93332C91.7856 3.91676 91.5897 3.89605 91.3896 3.87948H91.3938ZM109.114 10.6964C109.051 10.6964 108.985 10.6881 108.922 10.7006C108.893 10.7047 108.872 10.7461 108.851 10.771C108.951 10.7296 109.051 10.6881 109.152 10.6467C109.268 10.8869 109.377 11.1354 109.518 11.3674C109.539 11.4005 109.702 11.3466 109.798 11.3301C109.573 11.1189 109.343 10.9076 109.118 10.6923L109.114 10.6964ZM99.5033 143.175C98.4777 143.539 97.4478 143.892 96.4305 144.277C96.2595 144.343 96.147 144.558 96.0093 144.707C96.1636 144.761 96.3637 144.902 96.4638 144.853C97.4812 144.323 98.4818 143.764 99.4867 143.213C99.5367 143.196 99.5909 143.163 99.6368 143.167C99.6785 143.172 99.7202 143.221 99.7577 143.246C99.6701 143.221 99.5868 143.196 99.4992 143.175H99.5033ZM94.3165 5.48639L94.3749 5.43669V5.44912C94.6876 5.75973 94.9462 6.23187 95.3214 6.35197C98.4109 7.3625 101.517 8.31091 104.623 9.25931C104.824 9.32144 105.07 9.25103 105.291 9.23861C105.099 9.05224 104.932 8.81203 104.707 8.68364C101.463 6.91107 98.0357 5.7266 94.3124 5.48224L94.3165 5.48639ZM34.4514 13.0944C34.8391 13.1109 35.2894 13.2601 35.6105 13.1192C38.8918 11.6738 42.1607 10.1912 45.4171 8.69192C45.8382 8.49728 46.2135 8.17424 46.547 7.84706C46.7846 7.61513 46.9097 7.27552 47.0848 6.98148C46.7096 7.01461 46.2801 6.94006 45.9716 7.09745C42.119 9.07709 38.2873 11.094 34.4514 13.0985C34.4806 13.1482 34.5098 13.1979 34.5431 13.2435C34.5764 13.2849 34.6223 13.318 34.664 13.3511L34.4514 13.0944ZM10.3727 109.956C10.3268 109.998 10.2768 110.043 10.231 110.085C10.281 110.039 10.3352 109.993 10.3852 109.948C10.4478 110.515 10.3519 111.161 10.5979 111.634C13.5874 117.333 17.0898 122.608 22.9896 125.802C22.9812 125.81 22.9728 125.819 22.9687 125.83C22.7686 125.21 22.6351 124.559 22.3599 123.967C21.3217 121.731 20.321 119.473 19.1411 117.311C18.6199 116.355 17.811 115.481 16.948 114.798C14.8132 113.112 12.5701 111.559 10.3727 109.956ZM26.5419 129.082C26.592 129.028 26.642 128.974 26.692 128.916C26.6461 128.962 26.5961 129.008 26.5503 129.052C26.8004 129.285 27.1048 129.484 27.2924 129.761C31.1991 135.455 36.9322 138.305 43.4115 139.986C43.8452 140.098 44.3164 140.065 44.7708 140.102C44.5874 139.746 44.4247 139.374 44.2204 139.03C43.4115 137.663 42.6861 136.234 41.7396 134.966C41.1768 134.213 40.3594 133.468 39.4964 133.145C35.8607 131.787 32.1707 130.573 28.4848 129.351C27.872 129.148 27.1882 129.165 26.5377 129.077L26.5419 129.082ZM80.1028 99.3456C83.7761 99.3456 86.5572 99.3084 89.334 99.3622C90.5474 99.3871 91.0644 99.0019 91.0936 97.7222C91.1812 93.7215 91.3395 89.7208 91.5397 85.7242C91.6064 84.374 91.1477 84.0137 89.776 83.964C82.0041 83.699 74.2364 83.3469 66.4687 82.9411C65.1887 82.8748 64.5882 83.0695 64.5007 84.4859C64.2505 88.4783 63.9254 92.4707 63.5126 96.4508C63.3666 97.8588 63.8836 98.2399 65.1887 98.3185C70.4588 98.6374 75.7207 99.035 80.0987 99.3415L80.1028 99.3456ZM80.2112 83.1937C82.8255 83.1937 86.0193 83.1151 89.2048 83.2268C90.9393 83.289 91.6939 82.8707 91.5981 80.9615C91.4063 77.1761 91.3812 73.3825 91.4146 69.593C91.4271 67.924 90.8934 67.4063 89.1506 67.3566C82.15 67.1661 75.1537 66.8264 68.1615 66.4289C66.7856 66.3502 66.3603 66.7146 66.2394 68.0316C65.8517 72.2145 65.393 76.3975 64.8717 80.5681C64.7134 81.8436 65.272 82.0921 66.3478 82.1666C70.7758 82.4689 75.2038 82.821 80.2154 83.1979L80.2112 83.1937ZM63.5751 85.6621C63.6084 85.335 63.6168 84.7054 63.7418 84.1048C63.9712 83.0073 63.4583 82.6968 62.4452 82.5229C54.9318 81.2307 47.4267 79.8971 39.9259 78.5262C39.0169 78.3605 38.4749 78.3648 38.3498 79.4457C37.8453 83.6866 37.2574 87.9192 36.8322 92.1684C36.7862 92.6447 37.4868 93.5807 37.9621 93.6676C45.6589 95.1255 53.3723 96.4715 61.0818 97.8588C62.2367 98.066 62.6745 97.66 62.7454 96.4674C62.9538 92.9594 63.2749 89.4557 63.5751 85.6621ZM62.1408 82.0342C63.6668 82.1997 63.9962 81.4625 64.1213 80.1704C64.5216 75.9917 64.9844 71.817 65.5139 67.6507C65.6723 66.3957 65.1178 66.1845 64.0671 66.0064C57.2417 64.8427 50.4246 63.6416 43.6242 62.3661C42.5318 62.1589 42.1065 62.4158 41.8772 63.418C40.9223 67.5761 39.9509 71.73 38.9627 75.8798C38.7125 76.9359 38.9335 77.5572 40.1219 77.7849C47.4643 79.1806 54.8025 80.6136 62.1449 82.0383L62.1408 82.0342ZM78.6019 114.272C82.0667 114.272 84.8435 114.222 87.6162 114.292C88.9588 114.326 89.6426 113.961 89.7551 112.507C90.0345 108.937 90.3973 105.372 90.8101 101.814C90.9602 100.522 90.5474 100.182 89.259 100.137C81.2244 99.8468 73.1899 99.4947 65.1595 99.0765C63.8419 99.006 63.2749 99.267 63.2248 100.65C63.0998 104.229 62.908 107.807 62.6619 111.381C62.5702 112.685 62.9705 113.183 64.3423 113.261C69.3248 113.547 74.2989 113.957 78.5976 114.272H78.6019ZM92.3485 91.6714H92.236C92.1234 93.6676 92.0525 95.668 91.8857 97.66C91.7899 98.7949 92.0942 99.3374 93.3451 99.2132C100.658 98.4719 107.976 97.7843 115.284 96.985C115.802 96.927 116.627 96.107 116.64 95.6266C116.74 91.3567 116.686 87.0826 116.678 82.8127C116.678 81.9679 116.353 81.6282 115.398 81.7276C108.155 82.4773 100.908 83.1813 93.6578 83.8605C92.7029 83.9516 92.3193 84.2995 92.3402 85.2645C92.3861 87.4015 92.3528 89.5385 92.3528 91.6756L92.3485 91.6714ZM92.1818 75.0598C92.2485 75.0598 92.3152 75.0598 92.382 75.0598C92.382 77.1968 92.4278 79.3379 92.361 81.475C92.3277 82.589 92.5946 83.173 93.8537 83.0446C100.963 82.3282 108.072 81.6282 115.185 80.9531C116.272 80.8496 116.594 80.3402 116.457 79.3214C115.86 75.0184 115.289 70.7112 114.714 66.4082C114.588 65.4722 114.167 65.2195 113.167 65.3272C106.683 66.023 100.191 66.6566 93.6953 67.2406C92.5654 67.3441 92.1026 67.663 92.1526 68.8517C92.2401 70.9182 92.1776 72.989 92.1776 75.0556L92.1818 75.0598ZM62.1366 105.715C62.1366 105.715 62.1449 105.715 62.1492 105.715C62.2534 103.86 62.3159 101.996 62.4827 100.145C62.5702 99.18 62.2409 98.8321 61.2777 98.6706C53.5641 97.3495 45.8548 95.9993 38.158 94.5912C36.978 94.3758 36.4819 94.5912 36.4861 95.8337C36.4944 99.619 36.4069 103.408 36.4861 107.194C36.4986 107.72 37.1865 108.598 37.6827 108.689C45.2336 110.122 52.8053 111.447 60.3729 112.806C61.4486 113 61.8656 112.574 61.8781 111.489C61.9073 109.563 62.0449 107.637 62.1366 105.711V105.715ZM80.499 51.2129C76.3128 50.9023 73.2566 50.7532 70.2254 50.4136C68.9537 50.2727 68.5159 50.5834 68.3699 51.8425C67.8989 55.8805 67.3609 59.9142 66.7398 63.9316C66.5312 65.2776 67.019 65.6129 68.2407 65.6626C75.308 65.9526 82.3752 66.2714 89.4424 66.6152C90.8392 66.6856 91.2478 66.1348 91.1311 64.793C90.7766 60.7425 90.4681 56.688 90.2388 52.6293C90.1679 51.3869 89.5842 51.184 88.521 51.2005C85.4689 51.246 82.4169 51.2171 80.499 51.2171V51.2129ZM94.8377 114.284C100.883 113.535 106.929 112.772 112.979 112.044C113.971 111.923 114.656 111.654 114.809 110.507C115.319 106.759 115.898 103.019 116.457 99.2752C116.627 98.1322 116.318 97.7346 115.014 97.8754C107.855 98.6458 100.692 99.3622 93.516 99.9669C92.0567 100.091 91.6522 100.625 91.573 101.942C91.4146 104.552 91.1853 107.161 90.8809 109.757C90.3639 114.193 90.3305 114.189 94.8377 114.284ZM67.6444 50.8857C67.6695 50.2727 67.6695 50.2811 66.1477 50.0078C60.4229 48.9807 54.6942 47.9826 48.9819 46.8933C47.8728 46.6821 47.3559 46.9347 47.0015 47.9949C45.6755 51.9791 44.2996 55.9466 42.8903 59.9018C42.5235 60.9331 42.7403 61.4342 43.8327 61.6247C50.7207 62.8257 57.6003 64.0682 64.5007 65.2071C64.8968 65.2734 65.7724 64.6439 65.8349 64.2505C66.4853 59.9639 67.019 55.661 67.6487 50.8857H67.6444ZM96.0969 66.5945C101.538 65.9526 106.979 65.3231 112.42 64.6646C113.363 64.5486 114.455 64.5694 114.017 63.008C112.85 58.825 111.741 54.6255 110.627 50.4302C110.382 49.4984 109.848 49.3327 108.935 49.4321C103.489 50.0202 98.0398 50.5959 92.582 51.0555C91.3103 51.1632 90.8975 51.5111 91.0311 52.7867C91.3646 56.0088 91.6314 59.2392 91.8274 62.4737C92.0734 66.5283 92.0317 66.5324 96.0969 66.5903V66.5945ZM37.4909 78.402C37.2866 78.2777 36.7488 77.818 36.1316 77.5903C30.532 75.5527 24.9033 73.5854 19.312 71.5188C18.3322 71.1585 17.8027 71.0011 17.6109 72.256C16.9897 76.3478 16.2809 80.4231 15.7055 84.519C15.6304 85.0492 15.9973 86.0348 16.3976 86.1839C22.4933 88.4783 28.6183 90.6857 34.7682 92.8393C35.0309 92.9305 35.8565 92.3506 35.8981 92.0152C36.4569 87.7081 36.9239 83.3843 37.4909 78.3979V78.402ZM37.5785 77.0974C37.7578 76.6667 38.0287 76.2069 38.1496 75.7141C39.142 71.5644 40.0426 67.3897 41.1141 63.2565C41.4311 62.0347 40.9891 61.7655 39.9801 61.4135C34.8183 59.6285 29.6607 57.8145 24.5531 55.8846C23.4148 55.4538 22.952 55.5947 22.5809 56.6963C21.2508 60.6763 19.8958 64.6521 18.5073 68.6156C18.0945 69.7917 18.5032 70.4006 19.6164 70.794C25.2243 72.7778 30.8198 74.7864 36.4235 76.7827C36.682 76.8738 36.9572 76.9276 37.5826 77.0933L37.5785 77.0974ZM77.0008 127.193C80.082 127.193 82.863 127.139 85.6357 127.218C86.8615 127.251 87.3702 126.795 87.5578 125.632C88.0539 122.567 88.5835 119.511 89.1922 116.467C89.4383 115.241 88.9087 115.116 87.8872 115.075C79.9819 114.76 72.0808 114.413 64.1797 114.015C63.0373 113.957 62.5536 114.176 62.5577 115.415C62.5661 118.381 62.5118 121.345 62.3535 124.306C62.2742 125.748 62.812 126.245 64.213 126.324C68.5785 126.568 72.9397 126.908 77.0008 127.189V127.193ZM61.5362 119.705C61.6071 119.705 61.6738 119.705 61.7446 119.705C61.7446 118.26 61.6738 116.811 61.7656 115.369C61.8365 114.276 61.532 113.8 60.3646 113.605C52.847 112.333 45.342 111.012 37.8453 109.629C36.657 109.41 36.5236 109.791 36.6528 110.76C37.0906 113.965 37.5326 117.17 37.9037 120.384C38.0371 121.544 38.6251 122.046 39.7258 122.24C46.4845 123.429 53.2348 124.63 59.9852 125.868C61.2485 126.1 61.582 125.603 61.5446 124.46C61.4946 122.878 61.532 121.291 61.532 119.705H61.5362ZM35.5938 101.098C35.6189 101.098 35.648 101.098 35.673 101.098C35.673 99.3084 35.5854 97.511 35.7022 95.726C35.7815 94.4752 35.3644 93.9699 34.147 93.5559C28.3848 91.5927 22.656 89.5261 16.948 87.4181C15.8722 87.0205 15.4094 87.0412 15.4511 88.2919C15.5762 92.1436 15.622 95.9993 15.8514 99.8468C15.889 100.485 16.5602 101.416 17.1564 101.64C22.8519 103.785 28.5933 105.802 34.318 107.877C35.352 108.254 35.6522 107.935 35.6146 106.883C35.548 104.957 35.5979 103.028 35.5979 101.098H35.5938ZM46.6346 46.5951C46.1509 46.3839 45.663 46.1437 45.1585 45.9614C40.8557 44.4042 36.5236 42.9257 32.2624 41.2608C31.1283 40.8177 30.653 41.0538 30.1568 41.9856C28.1721 45.7006 26.2 49.4238 24.1444 53.0973C23.4773 54.2942 23.8485 54.8202 24.995 55.2261C30.0901 57.0276 35.1894 58.825 40.2636 60.6928C41.456 61.1318 41.8147 60.668 42.1566 59.6409C43.4824 55.6443 44.8834 51.6768 46.2551 47.6968C46.3469 47.4358 46.4344 47.175 46.6387 46.5992L46.6346 46.5951ZM135.256 74.1983C134.135 69.68 133.063 65.2734 131.895 60.8916C131.829 60.639 130.95 60.3616 130.561 60.4733C125.854 61.8484 121.164 63.273 116.493 64.7681C116.061 64.909 115.489 65.6669 115.535 66.0768C116.052 70.5166 116.656 74.948 117.319 79.367C117.377 79.7439 118.129 80.3816 118.378 80.3071C123.674 78.7416 128.948 77.1057 134.21 75.4201C134.598 75.2958 134.836 74.7036 135.253 74.1983H135.256ZM92.9031 126.961C92.9114 127.028 92.9239 127.09 92.9323 127.156C98.2359 126.493 103.544 125.863 108.835 125.135C109.485 125.044 110.436 124.584 110.619 124.07C111.845 120.704 112.904 117.274 114.001 113.862C114.251 113.087 114.051 112.748 113.104 112.847C105.853 113.584 98.5986 114.251 91.352 115.021C90.8851 115.071 90.2138 115.738 90.1054 116.219C89.6342 118.302 89.3215 120.422 88.9838 122.534C88.7461 124.004 88.5627 125.487 88.3542 126.961H92.8989H92.9031ZM117.532 88.8179C117.532 88.8179 117.545 88.8179 117.549 88.8179C117.549 90.9549 117.557 93.0878 117.545 95.2249C117.54 95.9372 117.423 96.7779 118.558 96.43C123.979 94.7652 129.395 93.0795 134.781 91.3194C135.198 91.1827 135.665 90.3999 135.661 89.9237C135.616 85.7242 135.456 81.5289 135.352 77.3293C135.327 76.3312 135.09 76.0786 133.989 76.4348C128.989 78.0541 123.961 79.5989 118.908 81.0484C117.72 81.388 117.399 81.8229 117.494 83.0281C117.644 84.9456 117.537 86.8839 117.537 88.8096L117.532 88.8179ZM81.3162 50.397C83.947 50.397 86.1652 50.3515 88.3792 50.4136C89.5842 50.4467 89.9886 50.0243 89.8135 48.8398C89.2549 45.0959 88.7212 41.352 88.2459 37.5956C88.1166 36.5644 87.6954 36.2331 86.6572 36.204C81.9499 36.0715 77.2426 35.8935 72.5395 35.645C71.4304 35.5869 70.8925 35.8644 70.7215 36.9868C70.1712 40.59 69.6042 44.1931 68.9496 47.7838C68.6951 49.1795 69.2122 49.6185 70.5256 49.6889C74.2614 49.8959 77.989 50.1734 81.312 50.3929L81.3162 50.397ZM66.969 49.5729C67.3652 49.0179 67.9739 48.5333 68.0823 47.9536C68.7535 44.2924 69.258 40.5982 69.9418 36.9371C70.1628 35.7526 69.8918 35.4089 68.7077 35.2184C64.3256 34.5143 59.956 33.715 55.5989 32.8784C54.5398 32.6755 53.9228 32.8784 53.4599 33.8806C51.8422 37.3885 50.1786 40.8756 48.4899 44.3545C47.9938 45.3734 47.998 45.9532 49.3281 46.1976C55.0568 47.2577 60.7732 48.3801 66.9649 49.5729H66.969ZM115.827 64.4782C120.897 62.7719 125.745 61.165 130.558 59.4587C130.858 59.351 131.153 58.3778 130.995 57.9926C129.281 53.8635 127.501 49.7592 125.654 45.6881C125.508 45.3692 124.662 45.0834 124.261 45.1994C120.217 46.3756 116.185 47.614 112.179 48.9144C111.82 49.0304 111.349 49.7676 111.428 50.0906C112.516 54.4267 113.68 58.7422 114.868 63.0535C114.981 63.4677 115.368 63.8073 115.822 64.47L115.827 64.4782ZM94.6209 50.3929C99.1698 49.8503 103.715 49.2996 108.263 48.7777C109.456 48.6411 110.04 48.3181 109.439 46.9637C107.821 43.3068 106.345 39.5835 104.678 35.9473C104.44 35.4255 103.419 34.9202 102.801 34.9658C98.6528 35.2763 94.5167 35.7941 90.3681 36.1171C89.1089 36.2124 88.8838 36.6182 89.0756 37.7654C89.5717 40.7598 89.9594 43.7706 90.3848 46.7732C90.7238 49.1753 92.1345 50.3819 94.6167 50.3929H94.6209ZM135.54 94.2765C134.956 93.6925 136.424 91.9613 134.523 92.479C129.182 93.9368 123.903 95.6266 118.632 97.3163C118.091 97.4902 117.445 98.2233 117.352 98.7783C116.724 102.584 116.248 106.415 115.668 110.23C115.502 111.319 115.84 111.646 116.877 111.323C121.835 109.782 126.814 108.304 131.721 106.626C132.492 106.361 133.276 105.256 133.48 104.407C134.29 101.06 134.872 97.66 135.54 94.2765ZM36.9989 120.985C36.5486 117.047 36.1984 113.551 35.7022 110.076C35.6314 109.588 34.9434 108.991 34.4138 108.797C28.7559 106.734 23.0604 104.779 17.4066 102.709C16.235 102.278 16.0432 102.551 16.3017 103.611C17.1481 107.086 17.9778 110.569 18.8743 114.036C18.9993 114.512 19.3996 115.125 19.8207 115.282C25.2577 117.333 30.7197 119.321 36.19 121.279C36.461 121.375 36.8906 121.027 36.9948 120.985H36.9989ZM75.5165 137.518C77.8764 137.518 80.2363 137.476 82.592 137.539C83.7136 137.568 84.4225 137.274 84.7309 136.11C85.3147 133.915 85.9442 131.728 86.6364 129.562C87.0075 128.39 86.749 128.03 85.4648 127.989C78.3266 127.753 71.1886 127.487 64.0545 127.085C62.5202 126.998 62.2867 127.512 62.3701 128.788C62.5077 130.85 62.5994 132.917 62.6036 134.984C62.6036 136.201 63.0706 136.677 64.3006 136.748C68.0406 136.955 71.7722 137.258 75.5165 137.522V137.518ZM46.768 45.4852C46.9931 45.1828 47.3975 44.7894 47.6228 44.3173C49.3238 40.7721 50.9583 37.198 52.6886 33.6695C53.1681 32.6921 53.1097 32.3069 51.984 31.9342C48.6318 30.8242 45.3462 29.5279 41.994 28.418C41.456 28.2399 40.447 28.4305 40.1219 28.8239C37.4492 32.075 34.8975 35.4296 32.2749 38.7262C31.4744 39.7327 31.7454 40.2752 32.867 40.6727C37.1741 42.1927 41.4769 43.7333 45.784 45.2657C45.98 45.3361 46.1884 45.3568 46.7638 45.4852H46.768ZM61.6988 131.695C61.6029 130.187 62.0657 128.163 61.2652 127.313C60.398 126.394 58.3507 126.572 56.8164 126.27C56.6121 126.229 56.4077 126.203 56.2035 126.162C50.8999 125.168 45.5797 124.241 40.2969 123.147C38.5791 122.791 38.379 123.247 38.8794 124.7C39.6423 126.911 40.3637 129.136 41.0475 131.368C41.3894 132.49 42.0857 133.024 43.2406 133.236C47.8687 134.077 52.4718 135.079 57.1166 135.837C61.8489 136.607 61.8656 136.512 61.6988 131.69V131.695ZM12.078 47.3199C11.782 47.792 11.486 48.1482 11.315 48.554C9.76397 52.24 8.27131 55.9466 6.68691 59.6202C6.15739 60.8461 6.43257 61.7945 7.41239 62.54C10.2685 64.7059 13.1704 66.8223 16.0473 68.9593C17.1606 69.7835 17.4691 69.2534 17.8235 68.1517C19.1119 64.1511 20.4544 60.1585 21.9305 56.2242C22.3641 55.0686 21.968 54.7415 21.1133 54.1493C18.3406 52.2193 15.6596 50.1527 12.9494 48.1316C12.6784 47.9287 12.4533 47.6719 12.078 47.3199ZM111.474 48.5417C115.789 47.1004 119.922 45.7337 124.024 44.2924C124.233 44.2179 124.421 43.3109 124.236 43.0334C121.781 39.2853 119.283 35.5662 116.714 31.8968C116.485 31.5656 115.635 31.3999 115.185 31.5324C112.195 32.3897 109.239 33.3754 106.258 34.2576C105.445 34.4978 105.086 34.6717 105.503 35.6325C107.184 39.48 108.764 43.373 110.415 47.237C110.594 47.6553 111.003 47.9784 111.474 48.5458V48.5417ZM16.8479 70.7484C16.7436 70.649 16.3017 70.1562 15.7805 69.7669C12.8411 67.5926 9.83903 65.4928 6.94958 63.2482C6.1282 62.6062 5.76546 62.2998 5.54865 63.5546C4.85234 67.5595 4.11435 71.5602 3.5056 75.5775C3.40971 76.2153 3.69741 77.2092 4.17273 77.5903C7.29148 80.0876 10.502 82.4732 13.7041 84.8669C14.4296 85.4095 14.7464 85.0989 14.8673 84.2416C15.4719 79.9385 16.1224 75.6437 16.8479 70.7402V70.7484ZM30.111 40.4409C29.7649 40.1882 29.4397 39.9604 29.1228 39.7202C26.7503 37.9434 24.3279 36.2331 22.0388 34.3569C21.2467 33.7067 20.9173 33.8765 20.4544 34.5475C17.9944 38.1257 15.547 41.7164 13.062 45.274C12.4365 46.1686 12.6993 46.8477 13.429 47.4068C16.0557 49.4155 18.7158 51.3786 21.3509 53.3748C22.4099 54.1741 22.9061 53.8511 23.4857 52.708C25.3869 48.96 27.43 45.2864 29.423 41.5839C29.619 41.2194 29.8441 40.8756 30.1068 40.4366L30.111 40.4409ZM89.038 137.323C91.4604 137.112 93.8829 136.938 96.3012 136.685C104.965 135.783 105.157 135.637 108.997 127.84C109.06 127.715 109.135 127.595 109.176 127.466C109.322 127.02 109.456 126.568 109.593 126.121C109.118 126.116 108.639 126.067 108.167 126.116C102.785 126.663 97.4062 127.292 92.015 127.756C87.954 128.109 87.9498 128.014 86.8365 132.018C86.6697 132.615 86.503 133.214 86.3237 133.808C85.5871 136.234 86.4919 137.406 89.038 137.323ZM112.087 125.094C117.395 123.214 122.285 121.49 127.16 119.734C127.439 119.635 127.698 119.278 127.827 118.985C129.344 115.514 130.841 112.031 132.313 108.544C132.43 108.267 132.337 107.906 132.342 107.583C132.021 107.649 131.692 107.695 131.379 107.786C126.405 109.273 121.426 110.743 116.469 112.288C115.911 112.462 115.213 112.963 115.039 113.472C113.875 116.86 112.833 120.289 111.782 123.714C111.703 123.967 111.899 124.303 112.087 125.102V125.094ZM80.9159 35.4296C82.9548 35.4296 84.6892 35.3923 86.4238 35.442C87.5786 35.4752 87.8747 35.003 87.6329 33.9428C86.9199 30.7828 86.3028 27.6021 85.5023 24.467C85.3772 23.97 84.5267 23.357 83.9679 23.3157C80.9284 23.0796 77.8722 23.0422 74.8284 22.8518C73.8612 22.7897 73.4525 23.1085 73.2775 24.0197C72.6937 27.0637 72.0933 30.1077 71.4429 33.1393C71.1635 34.4315 71.6388 34.8539 72.9105 34.9077C75.6791 35.0278 78.4475 35.2639 80.9118 35.4296H80.9159ZM69.404 34.7379C69.7751 34.3073 70.4172 33.8931 70.5381 33.3629C71.2552 30.1989 71.8222 27.0057 72.5019 23.8375C72.7021 22.9098 72.3851 22.6281 71.5138 22.4874C68.6368 22.0194 65.7808 21.4313 62.8996 21.0088C62.3576 20.9301 61.4778 21.2076 61.1985 21.6217C59.1346 24.6451 57.2 27.7512 55.1903 30.8118C54.5733 31.7519 55.0652 31.9797 55.8866 32.1371C60.2478 32.9695 64.6049 33.8144 69.404 34.7379ZM92.0734 35.2722C92.0775 35.3177 92.0859 35.3633 92.0901 35.4048C95.5215 34.9865 98.953 34.5475 102.389 34.1623C103.46 34.0422 103.698 33.6611 103.118 32.7293C101.159 29.5734 99.2741 26.3679 97.2268 23.2701C96.8891 22.7566 95.8592 22.4252 95.1754 22.4625C92.6238 22.6032 90.0846 23.0009 87.5328 23.1541C86.3362 23.2245 86.1944 23.6469 86.4405 24.674C87.0659 27.2791 87.587 29.9089 88.1791 32.5223C88.9046 35.7237 88.0831 35.3674 91.6606 35.2888C91.7982 35.2888 91.9357 35.2763 92.0734 35.2722ZM14.5213 93.3529C14.5672 93.3529 14.6089 93.3529 14.6547 93.3529C14.6547 91.4892 14.5881 89.6255 14.6798 87.766C14.7339 86.7182 14.3212 86.2253 13.4706 85.6496C10.4353 83.6079 7.49995 81.4212 4.52296 79.2882C4.19774 79.0564 3.86835 78.8244 3.53896 78.5925C3.42222 79.0398 3.18456 79.4913 3.20958 79.9303C3.41805 83.7155 3.6432 87.4968 3.93923 91.2779C3.9851 91.8454 4.28113 92.5619 4.70642 92.9056C7.71677 95.3118 10.7855 97.6559 13.8583 99.9834C14.5922 100.538 14.9633 100.298 14.8924 99.3415C14.7382 97.3453 14.6381 95.3491 14.5172 93.3529H14.5213ZM33.0962 22.301C32.7294 22.5453 32.3541 22.7276 32.0664 23.0009C28.9102 25.9911 25.7705 29.0061 22.6142 31.9921C21.8846 32.6796 21.9388 33.3216 22.681 33.8765C24.9909 35.6159 27.3007 37.3596 29.6899 38.9913C30.0109 39.2108 31.0157 38.9789 31.2992 38.631C34.0302 35.2514 36.6528 31.7892 39.363 28.389C39.9593 27.6435 39.8467 27.3619 39.0836 26.8359C37.2658 25.5893 35.5521 24.1978 33.7968 22.8601C33.5841 22.6985 33.384 22.5246 33.1005 22.2968L33.0962 22.301ZM144.566 66.3708C143.362 62.3287 142.086 58.0382 140.765 53.7641C140.74 53.6772 140.022 53.6316 139.813 53.793C137.662 55.5035 135.515 57.2264 133.452 59.0363C133.051 59.3883 132.721 60.1918 132.825 60.6887C133.714 64.9379 134.689 69.1665 135.72 73.3866C135.799 73.7055 136.637 74.1818 136.841 74.0741C139.61 72.5749 142.124 70.7527 143.846 68.0482C144.096 67.6548 144.225 67.1827 144.571 66.3751L144.566 66.3708ZM139.935 51.7347C139.872 51.4986 139.859 51.3495 139.797 51.2337C137.654 47.2247 135.515 43.2156 133.326 39.2315C133.259 39.1114 132.55 39.1569 132.317 39.3434C130.49 40.8011 128.686 42.2838 126.943 43.8368C126.613 44.1309 126.321 44.8805 126.467 45.2325C128.189 49.3658 129.982 53.47 131.826 57.5495C131.984 57.8973 132.888 58.3197 133.035 58.2039C135.219 56.4437 137.346 54.609 139.452 52.7495C139.731 52.5051 139.801 52.0288 139.939 51.7347H139.935ZM20.0959 116.429C20.1293 116.914 20.0543 117.287 20.1918 117.552C21.6761 120.426 23.1605 123.301 24.7241 126.134C24.9992 126.634 25.5579 127.11 26.0958 127.313C30.4237 128.965 34.7766 130.56 39.1296 132.138C39.4756 132.263 39.9133 132.143 40.3095 132.138C40.2136 131.749 40.1343 131.352 40.0177 130.966C39.3088 128.663 38.4999 126.39 37.9078 124.058C37.6118 122.899 37.0615 122.418 35.9273 122.041C31.0657 120.435 26.2584 118.683 21.4301 116.976C21.1049 116.86 20.788 116.711 20.0959 116.425V116.429ZM52.4843 17.5921C52.4593 17.6045 52.1758 17.6666 51.9881 17.8365C48.7276 20.7147 45.4712 23.5973 42.2358 26.4964C41.4227 27.2252 42.1065 27.5566 42.7069 27.7719C46.0258 28.9689 49.3406 30.1658 52.6886 31.2715C53.1056 31.4081 53.9603 31.1473 54.1938 30.7952C56.2577 27.7015 58.2423 24.5498 60.2062 21.3857C60.3646 21.1289 60.277 20.3794 60.1269 20.3254C57.6712 19.3977 55.1861 18.5404 52.4885 17.5921H52.4843ZM136.695 84.1878C136.65 84.1878 136.607 84.1919 136.561 84.196C136.561 85.8484 136.604 87.505 136.545 89.1575C136.511 90.197 136.916 90.4994 137.704 89.8533C139.93 88.0269 142.157 86.1839 144.246 84.2042C144.825 83.6576 145.188 82.5974 145.18 81.7773C145.147 77.8553 144.955 73.9332 144.797 70.0113C144.784 69.7131 144.571 69.419 144.454 69.125C144.2 69.3197 143.938 69.5102 143.687 69.7131C141.535 71.4277 139.442 73.2252 137.204 74.8196C136.348 75.4284 136.007 75.9461 136.115 76.9773C136.374 79.3753 136.508 81.7814 136.695 84.1878ZM104.436 34.1582C108.459 32.837 111.545 31.8471 114.601 30.7621C114.784 30.6958 114.918 29.6687 114.705 29.4451C111.741 26.372 108.73 23.3405 105.666 20.3669C105.328 20.0397 104.528 19.932 104.036 20.0605C102.234 20.5284 100.483 21.1869 98.6861 21.6839C97.7355 21.9448 97.6438 22.2679 98.1525 23.0837C100.158 26.2934 102.118 29.5321 104.048 32.7832C104.323 33.2512 104.357 33.86 104.44 34.1582H104.436ZM132.284 37.7198C131.984 37.2477 131.745 36.7549 131.4 36.349C128.907 33.4085 126.347 30.5219 123.908 27.5358C122.782 26.1609 122.077 26.2064 121.002 27.6186C120.276 28.5712 119.163 29.2835 118.111 29.9255C117.19 30.4888 117.044 30.8574 117.703 31.8016C120.146 35.297 122.514 38.8463 124.837 42.4247C125.387 43.2736 125.842 43.7002 126.734 42.9631C128.318 41.6502 129.916 40.3497 131.463 38.9954C131.808 38.6931 131.984 38.2003 132.284 37.7239V37.7198ZM73.1065 144.633C74.0363 144.633 75.1454 144.625 76.2544 144.633C81.2161 144.679 81.1702 144.663 83.1966 140.032C83.8053 138.636 83.5677 138.321 82.0458 138.293C77.1883 138.209 72.3351 138.011 67.4818 137.796C61.9948 137.551 62.6036 136.118 63.329 142.447C63.4542 143.552 63.9587 143.992 65.0261 144.058C67.657 144.219 70.2879 144.426 73.1023 144.629L73.1065 144.633ZM126.4 121.506C125.95 121.506 125.613 121.432 125.321 121.519C120.876 122.812 116.435 124.1 112.012 125.463C111.441 125.64 110.832 126.137 110.523 126.651C109.089 129.077 107.746 131.559 106.387 134.031C106.233 134.313 106.162 134.64 106.054 134.946C106.387 134.946 106.742 135.033 107.046 134.938C110.798 133.754 114.551 132.565 118.283 131.318C118.841 131.132 119.409 130.717 119.775 130.258C121.827 127.669 123.816 125.031 125.826 122.405C125.992 122.19 126.126 121.946 126.405 121.506H126.4ZM42.857 134.279C42.8445 134.395 42.6611 134.814 42.7986 135.033C43.8952 136.781 45.0084 138.524 46.2135 140.198C46.5428 140.653 47.1765 141.051 47.7353 141.159C52.2883 142.037 56.854 142.86 61.4278 143.618C61.7489 143.672 62.5119 143.055 62.4993 142.778C62.4327 141.27 62.2617 139.755 61.949 138.276C61.8573 137.842 61.236 137.274 60.7815 137.199C54.9818 136.209 49.1654 135.294 42.857 134.279ZM4.57716 95.3574C5.11919 97.2956 5.81549 99.3292 6.24078 101.416C7.45826 107.401 11.6319 110.838 16.6227 113.613C16.948 113.791 17.3524 113.824 17.7235 113.924C17.6901 113.597 17.686 113.261 17.6151 112.942C16.8604 109.579 16.1224 106.216 15.3052 102.87C15.1592 102.274 14.784 101.594 14.3003 101.243C11.3442 99.0848 8.32968 97.0058 5.33184 94.9101C5.14004 94.7734 4.88987 94.7196 4.66471 94.6284C4.64387 94.8231 4.61885 95.0177 4.57716 95.3656V95.3574ZM51.3627 17.1199C51.2376 16.9046 51.2001 16.7597 51.1084 16.6851C49.795 15.6786 48.4983 14.6474 47.1307 13.7156C46.9097 13.5624 46.3219 13.7653 46.0008 13.9599C42.2275 16.2667 38.4749 18.6108 34.7141 20.9384C33.9052 21.4395 33.8926 21.9862 34.6265 22.5287C36.3401 23.8002 38.033 25.1131 39.83 26.2603C40.1927 26.4921 41.1433 26.2685 41.5353 25.9248C44.6123 23.2535 47.6185 20.5036 50.6456 17.7743C50.8916 17.5548 51.1292 17.327 51.3543 17.1158L51.3627 17.1199ZM86.2444 144.443C89.0631 144.095 92.0317 143.818 94.9628 143.324C96.0636 143.139 97.2268 142.632 98.1025 141.95C99.5617 140.811 100.838 139.427 102.147 138.106C102.501 137.745 102.697 137.232 102.968 136.785C102.426 136.797 101.884 136.772 101.346 136.823C96.8016 137.253 92.261 137.866 87.7038 138.073C85.5148 138.173 84.2389 138.769 83.651 140.898C83.3134 142.119 82.6796 143.262 82.1751 144.443H86.2403H86.2444ZM144.963 86.9418C144.779 86.3165 144.675 85.9644 144.571 85.6124C144.309 85.8112 144.05 86.0141 143.788 86.2129C141.761 87.7494 139.722 89.2693 137.72 90.8348C137.22 91.2282 136.557 91.7253 136.457 92.2678C135.711 96.2479 135.085 100.253 134.427 104.249C134.323 104.875 134.302 105.475 135.207 104.924C138.187 103.114 141.215 101.193 142.332 97.7387C143.491 94.1605 144.137 90.4165 144.963 86.9459V86.9418ZM109.41 16.2502C108.555 17.0123 107.817 17.8488 106.912 18.4287C105.883 19.0872 106.029 19.4847 106.817 20.2344C109.268 22.5702 111.707 24.9225 114.03 27.3826C116.76 30.2775 116.969 30.3397 119.938 27.5607C120.238 27.2791 120.501 26.9519 120.797 26.6619C121.622 25.8585 121.56 25.1669 120.621 24.4711C117.182 21.9158 113.763 19.3356 110.331 16.772C110.06 16.5691 109.739 16.4365 109.41 16.2502ZM80.1945 22.4418C81.4079 22.4418 82.517 22.4045 83.6261 22.4542C84.6976 22.4997 84.9769 22.0856 84.6476 21.0999C83.9762 19.0747 83.3884 17.0205 82.6671 15.016C82.4335 14.3658 81.9457 13.376 81.4704 13.3098C79.711 13.0737 77.9055 13.1357 76.1168 13.1648C75.9667 13.1648 75.7749 13.7322 75.6915 14.0552C75.1245 16.2544 74.5949 18.4618 74.0154 20.6609C73.7528 21.659 74.1113 22.0318 75.112 22.0814C76.8423 22.1642 78.5685 22.3258 80.1945 22.4459V22.4418ZM72.0058 21.8702C72.3393 21.4851 72.9731 21.0461 73.1774 20.4621C73.6527 19.1037 73.9154 17.6708 74.2739 16.271C75.1037 13.0488 75.112 13.0115 71.7681 12.3655C70.8967 12.1956 69.5916 11.9969 69.1163 12.4566C66.9898 14.5149 65.0845 16.8051 63.1081 19.0126C62.5118 19.6794 62.6995 20.1143 63.5459 20.2757C66.1977 20.7852 68.8536 21.278 72.0099 21.8702H72.0058ZM87.6413 22.4211C89.9052 22.1685 92.1692 21.8785 94.4374 21.6756C95.8051 21.5555 95.7591 21.0585 95.0003 20.1888C93.6453 18.6316 92.1734 17.1489 91.0018 15.4675C89.2798 12.995 87.0825 12.3985 84.2515 13.0115C83.2215 13.2352 83.0089 13.4546 83.3675 14.4445C84.1347 16.5732 84.8727 18.7227 85.4231 20.9177C85.7524 22.2389 86.4321 22.5868 87.6413 22.4169V22.4211ZM19.8082 27.7222C20.1043 28.9274 20.2794 29.7971 20.5337 30.6461C20.9131 31.9093 21.3634 32.1371 22.4308 31.0272C24.8699 28.4884 27.3549 25.9703 30.0401 23.7008C31.687 22.3051 33.0296 21.1496 31.5827 18.909C31.4785 18.7476 31.4618 18.5073 31.4744 18.3044C31.5578 16.9252 31.0866 16.71 30.0318 17.5921C27.1131 20.0273 24.1236 22.3796 21.3051 24.9225C20.5212 25.6307 20.2377 26.8814 19.8082 27.7222ZM10.231 40.8136C10.5812 42.0187 10.8564 43.1452 11.2441 44.2345C11.5985 45.2284 11.9863 45.3775 12.6701 44.3297C14.6547 41.2733 16.6269 38.192 18.8535 35.3136C20.0876 33.7192 20.9965 32.4104 19.6164 30.4929C19.2871 30.0332 19.3412 29.3042 19.2078 28.7038C19.137 28.3849 19.041 28.0701 18.9535 27.7512C18.6408 27.9541 18.2363 28.0908 18.0279 28.3724C15.768 31.404 13.4706 34.4149 11.34 37.5335C10.7146 38.4487 10.5895 39.6953 10.2268 40.8136H10.231ZM64.5966 10.158C64.3839 10.2409 64.1088 10.3071 63.8753 10.4479C60.6565 12.3572 57.4459 14.2706 54.2355 16.1922C53.3057 16.7513 53.7351 17.1324 54.4523 17.3891C56.4077 18.0973 58.3591 18.8345 60.3479 19.4268C60.8149 19.5675 61.6363 19.3646 61.9615 19.0126C63.992 16.8383 65.9391 14.5895 67.8738 12.3324C68.0447 12.1294 68.0489 11.4502 67.953 11.4088C66.8731 10.9532 65.7557 10.5763 64.5925 10.1622L64.5966 10.158ZM97.2894 21.3069C99.2741 20.7024 101.059 20.1556 102.843 19.609C103.877 19.2942 104.09 18.8718 103.081 18.1884C100.279 16.2874 97.452 14.4197 94.7168 12.4276C93.3283 11.417 92.0734 11.4005 90.5182 12.0217C89.4341 12.4566 89.3883 12.6429 90.1387 13.463C92.1859 15.7035 94.1414 18.0269 96.1511 20.3006C96.4846 20.6775 96.9099 20.9798 97.2852 21.3069H97.2894ZM32.0206 17.3394C32.3875 18.5529 32.5543 19.3687 32.9003 20.0977C33.0088 20.3297 33.7259 20.5533 33.9426 20.4207C37.8996 18.0269 41.8396 15.6041 45.7381 13.1275C47.1099 12.2536 45.488 11.1603 45.8007 10.1746C45.3003 10.1207 44.6999 9.86397 44.3164 10.0504C40.7598 11.7359 37.2074 13.4298 33.7384 15.2811C32.9628 15.6952 32.5167 16.7182 32.0164 17.3435L32.0206 17.3394ZM3.85167 55.4497C4.19356 56.5969 4.51879 57.7855 4.91488 58.9534C5.00661 59.2226 5.34017 59.4131 5.56115 59.6368C5.73628 59.3676 5.95726 59.115 6.07399 58.8209C7.24979 55.9466 8.26714 53.0021 9.61388 50.2148C10.7104 47.9452 11.9404 45.8497 10.0517 43.4393C9.81818 43.1411 9.84736 42.6483 9.71811 42.2548C9.62638 41.969 9.47628 41.704 9.35119 41.4265C9.14273 41.6791 8.85919 41.8986 8.74246 42.1844C7.38321 45.5017 6.0198 48.815 4.72309 52.1571C4.327 53.176 4.15187 54.2776 3.8475 55.4497H3.85167ZM140.798 102.622C140.727 102.39 140.672 102.228 140.623 102.062C140.451 102.162 140.272 102.249 140.114 102.361C138.246 103.661 136.378 104.962 134.527 106.283C134.202 106.515 133.818 106.788 133.676 107.132C132.246 110.635 130.861 114.16 129.474 117.68C129.403 117.858 129.411 118.066 129.385 118.26C129.619 118.231 129.886 118.26 130.082 118.156C130.512 117.933 130.899 117.643 131.308 117.387C134.577 115.328 136.198 112.015 137.883 108.772C138.929 106.755 139.831 104.668 140.798 102.617V102.622ZM61.4528 7.9713C60.6147 8.20323 60.1353 8.29849 59.6808 8.46414C56.3703 9.68175 53.0472 10.8662 49.7699 12.1626C47.7186 12.9743 47.7311 13.2352 49.4698 14.5853C52.0798 16.6105 52.0465 16.565 54.7859 14.8007C57.1083 13.3055 59.5182 11.9472 61.8781 10.5018C62.3701 10.1994 62.7954 9.78943 63.254 9.42498C62.591 8.89073 61.9282 8.35233 61.4486 7.96302L61.4528 7.9713ZM117.061 133.157C116.211 133.268 115.906 133.277 115.622 133.355C112.42 134.226 109.214 135.079 106.033 136.014C105.349 136.218 104.653 136.631 104.144 137.133C102.718 138.533 101.384 140.019 100.025 141.485C99.7994 141.73 99.6201 142.015 99.4199 142.285C99.7369 142.268 100.066 142.294 100.375 142.235C106.471 141.047 111.582 138.014 116.097 133.885C116.248 133.745 116.427 133.637 117.065 133.165L117.061 133.157ZM95.2755 9.47882C94.8669 9.8267 94.4166 10.2077 93.9621 10.5929C94.254 10.9159 94.4958 11.3052 94.8461 11.5454C97.6272 13.4589 100.467 15.2977 103.218 17.2525C105.249 18.6979 105.699 18.702 107.517 16.9336C108.363 16.1135 108.497 15.5213 107.279 14.9622C103.648 13.2807 100.037 11.5661 96.4138 9.87226C96.1053 9.7273 95.7675 9.64448 95.2755 9.47467V9.47882ZM109.548 14.254C109.856 14.7965 110.035 15.5047 110.494 15.8527C113.996 18.5322 117.553 21.1455 121.106 23.7629C121.347 23.941 121.693 23.9741 121.99 24.0777C122.069 23.7547 122.31 23.357 122.202 23.121C121.564 21.7336 121.18 19.9652 120.088 19.1037C117.341 16.9377 114.259 15.1858 111.307 13.2807C110.302 12.6305 109.431 12.295 109.552 14.2581L109.548 14.254ZM133.139 34.9243C132.909 34.0381 132.931 33.0606 132.459 32.4767C129.606 28.944 126.651 25.4982 123.707 22.04C123.603 21.92 123.194 21.8744 123.085 21.9697C122.782 22.243 123.182 25.6432 123.502 26.0077C126.242 29.1221 128.973 32.2406 131.717 35.3551C131.979 35.6532 132.301 35.9058 132.596 36.1792C132.779 35.7568 132.964 35.3385 133.142 34.9243H133.139ZM71.6555 145.465C71.6555 145.424 71.6555 145.383 71.6555 145.342C69.7167 145.213 67.778 145.047 65.8391 144.973C65.2262 144.948 64.6008 145.16 63.9836 145.263C64.3339 146.062 64.6133 146.902 65.0719 147.636C65.222 147.876 65.8391 147.88 66.2477 147.901C69.2956 148.05 72.3518 148.344 75.3913 148.224C76.6256 148.174 77.843 147.25 79.0188 146.633C79.2856 146.492 79.3482 145.979 79.5025 145.636C79.1773 145.577 78.852 145.474 78.5227 145.474C76.2336 145.462 73.9446 145.465 71.6555 145.465ZM0.908032 70.2763C1.25827 71.6845 1.52928 72.8855 1.87534 74.0617C1.95457 74.3268 2.30063 74.5172 2.52162 74.7408C2.60083 74.48 2.70091 74.2232 2.75093 73.9582C3.32632 70.7774 3.58483 67.5016 4.55631 64.4451C5.31932 62.0554 4.75644 60.2 3.70574 58.2411C3.589 58.0216 3.38052 57.8518 3.21374 57.6612C3.11785 57.9139 2.97608 58.1583 2.93022 58.4234C2.23809 62.4158 1.56263 66.4123 0.903863 70.2763H0.908032ZM46.6136 9.96337C46.8389 11.5579 46.9556 12.469 48.5983 11.8022C52.3217 10.2947 56.1201 8.97769 59.8684 7.5323C60.2646 7.37907 60.523 6.88209 60.8441 6.54248C60.4147 6.33126 59.931 5.86741 59.5683 5.95024C55.6489 6.83653 51.7379 7.76423 47.8562 8.79547C47.2933 8.94456 46.8889 9.69003 46.6136 9.96337ZM62.2659 147.47C63.2082 147.619 63.7502 147.532 63.3833 146.323C63.0581 145.25 62.6911 144.612 61.3694 144.435C57.6003 143.929 53.8602 143.192 50.1077 142.566C49.6157 142.484 49.1071 142.521 48.6026 142.501C48.9778 142.881 49.3238 143.303 49.7366 143.639C53.3807 146.638 57.988 146.534 62.2659 147.466V147.47ZM140.902 48.4547C140.602 47.4358 140.431 46.3259 139.963 45.3526C138.563 42.4329 137.079 39.5504 135.548 36.6927C135.177 36.0011 134.502 35.471 133.968 34.8623C133.86 35.9307 133.726 36.9951 133.668 38.0635C133.655 38.2872 133.955 38.5192 134.089 38.7594C135.936 42.0726 137.775 45.39 139.626 48.699C139.847 49.0924 140.143 49.4403 140.402 49.8131C140.552 49.399 140.702 48.9889 140.898 48.4505L140.902 48.4547ZM109.031 14.1215C109.101 13.8854 109.172 13.6493 109.247 13.4133C108.589 12.701 108.063 11.6655 107.246 11.3384C103.852 9.98408 100.375 8.8286 96.9099 7.6524C96.5347 7.52402 96.0469 7.73938 95.609 7.79322C95.8801 8.18666 96.0636 8.75819 96.4388 8.94042C100.233 10.771 104.048 12.5476 107.884 14.2913C108.18 14.4238 108.647 14.1877 109.031 14.1215ZM81.4537 148.113C86.553 147.693 90.1554 146.845 93.1032 145.234C93.391 145.076 93.6369 144.848 93.8996 144.653C93.5452 144.609 93.1825 144.497 92.8322 144.522C89.309 144.799 85.7816 145.073 82.2626 145.416C81.7039 145.47 81.0869 145.756 80.6657 146.124C80.1195 146.6 79.7443 147.268 79.2939 147.852L81.4496 148.113H81.4537ZM79.5609 12.3778C81.6372 12.4152 81.7039 12.3116 80.8075 10.3817C80.5781 9.88469 80.353 9.38356 80.0778 8.91557C79.5691 8.04999 79.0272 7.20513 78.4976 6.35197C78.0598 7.29209 77.5428 8.20737 77.2009 9.18477C76.1002 12.3116 76.1252 12.3199 79.5609 12.3778ZM60.4104 3.72625C57.938 4.13625 55.5864 4.38475 53.3141 4.94799C51.7422 5.33729 50.2703 6.13661 48.7735 6.80339C48.5358 6.91107 48.4149 7.28381 48.2439 7.5323C48.5066 7.52402 48.7776 7.55301 49.032 7.49917C52.8096 6.66258 56.587 5.83427 60.3563 4.95214C60.7607 4.85688 61.0943 4.46344 61.4611 4.21081C61.0901 4.041 60.7231 3.8712 60.4104 3.72625ZM74.4907 12.0963C74.891 11.7235 75.4914 11.4088 75.6999 10.9242C76.2169 9.72317 76.5629 8.45172 76.9507 7.20098C77.0257 6.96491 76.9716 6.69158 76.9757 6.43066C76.7256 6.49692 76.4338 6.49692 76.2336 6.63359C75.212 7.34593 74.178 8.04999 73.2149 8.83689C72.381 9.52023 71.6304 10.3113 70.8467 11.0526C71.9515 11.3674 73.0565 11.6821 74.4866 12.088L74.4907 12.0963ZM83.8261 12.6222C83.9388 12.5022 84.0555 12.3821 84.168 12.2619C84.5099 12.2371 84.8643 12.2495 85.1979 12.179C85.7107 12.0714 86.2111 11.9099 86.7156 11.7691C86.3946 11.3632 86.136 10.8828 85.7399 10.5722C84.2806 9.42912 82.7838 8.33161 81.2786 7.2424C80.9617 7.01461 80.5699 6.88622 80.2154 6.71228C80.3238 7.13886 80.3781 7.58614 80.5531 7.98373C80.9951 8.98598 81.3912 10.0296 81.9999 10.9283C82.4544 11.5993 83.2091 12.0673 83.8304 12.6264L83.8261 12.6222ZM145.363 63.0949C144.388 59.3634 143.357 55.3875 142.295 51.4158C142.178 50.981 141.878 50.5916 141.66 50.1817C141.461 50.6828 141.215 51.1756 141.077 51.6933C141.014 51.9294 141.144 52.2234 141.218 52.4803C142.315 56.1579 143.412 59.8355 144.525 63.509C144.596 63.741 144.83 63.9274 144.984 64.1303C145.067 63.8984 145.15 63.6665 145.359 63.0949H145.363ZM74.1656 6.35197C71.6972 7.27967 69.1205 8.23636 66.5604 9.23447C66.4395 9.28003 66.427 9.93024 66.4436 9.93438C67.5444 10.1622 68.912 10.8579 69.7084 10.4479C71.447 9.5575 72.9021 8.11211 74.4615 6.87794C74.5825 6.78269 74.6117 6.57561 74.6825 6.42238C74.5533 6.40581 74.424 6.3851 74.1697 6.35197H74.1656ZM2.32565 82.6553C2.37151 82.6553 2.4132 82.6553 2.45907 82.6553C2.45907 81.1395 2.53412 79.6196 2.42989 78.1079C2.37568 77.3252 2.03795 76.5508 1.77111 75.7929C1.69189 75.5692 1.42505 75.4118 1.24576 75.2254C1.15403 75.449 0.966403 75.6769 0.987251 75.888C1.32498 79.8681 1.67521 83.8481 2.0588 87.8198C2.08382 88.0973 2.37568 88.35 2.53829 88.615C2.57999 88.35 2.66337 88.0766 2.65087 87.8157C2.55497 86.097 2.43405 84.374 2.32149 82.6553H2.32565ZM88.7336 11.6283C89.1548 11.5371 89.4383 11.5123 89.6926 11.4129C90.1888 11.2183 90.6724 10.9863 91.1602 10.7668C90.7433 10.4645 90.364 10.0835 89.9011 9.8764C87.8247 8.95284 85.7233 8.07484 83.6261 7.1927C83.3884 7.0933 83.1173 7.06845 82.863 7.01047C82.9798 7.20926 83.0465 7.47018 83.2133 7.60271C84.7226 8.80375 86.2403 9.99237 87.7747 11.1561C88.0831 11.3881 88.4793 11.5082 88.7336 11.6283ZM48.9486 144.036C48.4233 143.635 48.1647 143.503 47.9896 143.3C45.6464 140.55 41.9522 140.856 39.0377 139.407C38.9378 139.356 38.7877 139.419 38.6584 139.427C38.7501 139.572 38.8085 139.796 38.9419 139.858C41.9356 141.262 44.9334 142.65 47.9355 144.025C48.1022 144.103 48.3399 144.033 48.9486 144.033V144.036ZM71.1427 5.98337C68.7452 6.44722 66.2435 6.91936 63.7502 7.42876C63.475 7.4826 63.2457 7.74766 62.9955 7.91332C63.1748 8.10798 63.3124 8.3896 63.5375 8.48071C64.0212 8.68365 64.6258 9.03153 65.0386 8.89486C67.1859 8.17009 69.2915 7.31281 71.4012 6.48864C71.5763 6.41823 71.7013 6.22358 71.8473 6.09105C71.6514 6.06206 71.4554 6.03308 71.1427 5.98751V5.98337ZM86.4029 6.79926C86.0527 6.85723 85.9234 6.87794 85.79 6.90279C85.9068 7.03118 85.9985 7.2134 86.1444 7.27967C88.1415 8.20323 90.1304 9.1475 92.161 9.99237C92.5154 10.1415 93.0824 9.93438 93.4868 9.74802C93.6202 9.6859 93.6161 8.91971 93.5452 8.899C91.1103 8.14939 88.6628 7.44947 86.4029 6.79926ZM62.5202 6.77026C64.9468 6.30227 67.115 5.88811 69.2872 5.46569C69.4165 5.44084 69.5333 5.37043 69.6583 5.32073C69.5207 5.25446 69.379 5.12193 69.2456 5.12608C67.0357 5.24618 64.8259 5.35386 62.6245 5.54437C62.341 5.56922 62.0908 6.01651 61.8281 6.26914C62.1157 6.47622 62.3993 6.68329 62.5244 6.77026H62.5202ZM88.3458 5.95852C88.1458 5.99994 87.8456 6.05792 87.5496 6.12004C87.8539 6.26914 88.1458 6.47207 88.471 6.56318C90.0721 7.02289 91.6731 7.47846 93.2909 7.87605C93.6786 7.97131 94.1247 7.83049 94.5459 7.8015C94.229 7.48675 93.9538 6.9732 93.5828 6.89451C91.8899 6.52591 90.1679 6.27328 88.3501 5.96267L88.3458 5.95852ZM79.6442 1.95782C78.556 1.86671 77.8096 1.76316 77.0592 1.75903C76.8006 1.75903 76.5421 1.99923 76.2794 2.13176C76.9424 2.6743 77.6054 3.21683 78.2641 3.76352C78.6268 3.29139 78.9855 2.81925 79.64 1.95782H79.6442ZM88.6085 4.57111C88.6044 4.60839 88.6002 4.64567 88.596 4.68294C88.1832 4.68294 87.7663 4.67052 87.3535 4.68707C87.0825 4.6995 86.8115 4.76163 86.5404 4.7989C86.7906 4.87758 87.0325 4.98941 87.2868 5.02668C88.7212 5.2379 90.1554 5.44083 91.5938 5.61892C91.8148 5.64791 92.0525 5.53608 92.2819 5.49053C92.0817 5.32487 91.8983 5.05982 91.6731 5.0184C90.6599 4.83203 89.6342 4.71193 88.6127 4.56697L88.6085 4.57111ZM83.4551 2.46722C82.5961 2.32227 81.9917 2.08206 81.4496 2.17318C80.9117 2.26429 80.4197 2.6743 79.9402 2.99319C79.8235 3.07188 79.8444 3.34937 79.7985 3.53159C80.3197 3.47361 80.8408 3.44876 81.3536 3.34937C81.8248 3.25825 82.2876 3.10915 82.7462 2.95178C82.9047 2.89794 83.034 2.75713 83.4551 2.45894V2.46722ZM63.7669 4.57526C65.4889 4.45929 66.9315 4.36818 68.3783 4.25635C68.5701 4.2398 68.7535 4.12797 68.9412 4.05756C68.7702 3.9913 68.5952 3.8712 68.4242 3.86705C66.9773 3.81736 65.5306 3.75524 64.0837 3.78422C63.7377 3.79251 63.3958 4.13212 63.0497 4.31848C63.3708 4.43444 63.6918 4.55041 63.771 4.57939L63.7669 4.57526ZM72.8855 1.71347C72.6145 1.78801 72.3018 1.87498 71.9932 1.96196C72.2642 2.14418 72.5144 2.37197 72.8063 2.50036C73.1857 2.66601 73.5902 2.79854 73.9946 2.86067C74.5324 2.9435 75.0828 2.9435 75.6248 2.98077C75.1411 2.61632 74.6909 2.18145 74.1572 1.90398C73.8112 1.72589 73.3483 1.77145 72.8855 1.70932V1.71347ZM68.7369 2.30156C68.7202 2.35126 68.7077 2.39681 68.691 2.44652C68.5534 2.43823 68.4116 2.39681 68.2825 2.42581C67.8905 2.50864 67.5069 2.62046 67.115 2.71985C67.4652 2.8234 67.8113 2.9435 68.1657 3.02633C68.3616 3.07188 68.5742 3.05531 68.7786 3.06775C69.7209 3.11744 70.6632 3.16714 71.6014 3.21683C70.6465 2.91451 69.6875 2.60804 68.7327 2.3057L68.7369 2.30156ZM62.3451 3.08431C62.7996 2.91451 63.3917 2.69086 63.9879 2.47137C63.7626 2.40096 63.5251 2.23944 63.3165 2.27258C62.4535 2.39681 61.5988 2.57905 60.7399 2.74056C61.2027 2.83995 61.6655 2.93935 62.3451 3.08845V3.08431ZM86.2528 3.90432C86.5404 3.84635 87.1617 3.7221 87.783 3.59785C87.0867 3.4819 86.3946 3.34108 85.6983 3.25825C85.4356 3.22512 85.1521 3.28724 84.8935 3.36179C84.6559 3.42806 84.4391 3.56058 84.2097 3.66412C84.4307 3.74281 84.6476 3.86705 84.8769 3.89605C85.2105 3.93746 85.5565 3.90432 86.2528 3.90432ZM145.638 67.5347C145.584 67.427 145.526 67.3193 145.472 67.2075C145.422 67.3069 145.313 67.4228 145.33 67.5098C145.359 67.6465 145.472 67.7624 145.547 67.8866C145.576 67.7708 145.605 67.6548 145.638 67.5347Z"
                fill="#3385FF" />
                </svg>